<svg xmlns="http://www.w3.org/2000/svg" width="100%" height="100%" viewBox="0 0 570 570" fill="#000"><path shape-rendering="crispEdges" d="M0,0 V10.75 H10.75 V0 H0 Z M10.75,0 V10.75 H21.51 V0 H10.75 Z M21.51,0 V10.75 H32.26 V0 H21.51 Z M32.26,0 V10.75 H43.02 V0 H32.26 Z M43.02,0 V10.75 H53.77 V0 H43.02 Z M53.77,0 V10.75 H64.53 V0 H53.77 Z M64.53,0 V10.75 H75.28 V0 H64.53 Z M86.04,0 V10.75 H96.79 V0 H86.04 Z M107.55,0 V10.75 H118.30 V0 H107.55 Z M139.81,0 V10.75 H150.57 V0 H139.81 Z M150.57,0 V10.75 H161.32 V0 H150.57 Z M172.08,0 V10.75 H182.83 V0 H172.08 Z M193.58,0 V10.75 H204.34 V0 H193.58 Z M215.09,0 V10.75 H225.85 V0 H215.09 Z M268.87,0 V10.75 H279.62 V0 H268.87 Z M301.13,0 V10.75 H311.89 V0 H301.13 Z M311.89,0 V10.75 H322.64 V0 H311.89 Z M344.15,0 V10.75 H354.91 V0 H344.15 Z M387.17,0 V10.75 H397.92 V0 H387.17 Z M419.43,0 V10.75 H430.19 V0 H419.43 Z M451.70,0 V10.75 H462.45 V0 H451.70 Z M494.72,0 V10.75 H505.47 V0 H494.72 Z M505.47,0 V10.75 H516.23 V0 H505.47 Z M516.23,0 V10.75 H526.98 V0 H516.23 Z M526.98,0 V10.75 H537.74 V0 H526.98 Z M537.74,0 V10.75 H548.49 V0 H537.74 Z M548.49,0 V10.75 H559.25 V0 H548.49 Z M559.25,0 V10.75 H570 V0 H559.25 Z M0,10.75 V21.51 H10.75 V10.75 H0 Z M64.53,10.75 V21.51 H75.28 V10.75 H64.53 Z M118.30,10.75 V21.51 H129.06 V10.75 H118.30 Z M150.57,10.75 V21.51 H161.32 V10.75 H150.57 Z M172.08,10.75 V21.51 H182.83 V10.75 H172.08 Z M182.83,10.75 V21.51 H193.58 V10.75 H182.83 Z M193.58,10.75 V21.51 H204.34 V10.75 H193.58 Z M204.34,10.75 V21.51 H215.09 V10.75 H204.34 Z M215.09,10.75 V21.51 H225.85 V10.75 H215.09 Z M311.89,10.75 V21.51 H322.64 V10.75 H311.89 Z M344.15,10.75 V21.51 H354.91 V10.75 H344.15 Z M397.92,10.75 V21.51 H408.68 V10.75 H397.92 Z M419.43,10.75 V21.51 H430.19 V10.75 H419.43 Z M440.94,10.75 V21.51 H451.70 V10.75 H440.94 Z M451.70,10.75 V21.51 H462.45 V10.75 H451.70 Z M462.45,10.75 V21.51 H473.21 V10.75 H462.45 Z M494.72,10.75 V21.51 H505.47 V10.75 H494.72 Z M559.25,10.75 V21.51 H570 V10.75 H559.25 Z M0,21.51 V32.26 H10.75 V21.51 H0 Z M21.51,21.51 V32.26 H32.26 V21.51 H21.51 Z M32.26,21.51 V32.26 H43.02 V21.51 H32.26 Z M43.02,21.51 V32.26 H53.77 V21.51 H43.02 Z M64.53,21.51 V32.26 H75.28 V21.51 H64.53 Z M129.06,21.51 V32.26 H139.81 V21.51 H129.06 Z M139.81,21.51 V32.26 H150.57 V21.51 H139.81 Z M150.57,21.51 V32.26 H161.32 V21.51 H150.57 Z M161.32,21.51 V32.26 H172.08 V21.51 H161.32 Z M182.83,21.51 V32.26 H193.58 V21.51 H182.83 Z M204.34,21.51 V32.26 H215.09 V21.51 H204.34 Z M225.85,21.51 V32.26 H236.60 V21.51 H225.85 Z M236.60,21.51 V32.26 H247.36 V21.51 H236.60 Z M258.11,21.51 V32.26 H268.87 V21.51 H258.11 Z M268.87,21.51 V32.26 H279.62 V21.51 H268.87 Z M290.38,21.51 V32.26 H301.13 V21.51 H290.38 Z M301.13,21.51 V32.26 H311.89 V21.51 H301.13 Z M322.64,21.51 V32.26 H333.40 V21.51 H322.64 Z M333.40,21.51 V32.26 H344.15 V21.51 H333.40 Z M365.66,21.51 V32.26 H376.42 V21.51 H365.66 Z M387.17,21.51 V32.26 H397.92 V21.51 H387.17 Z M408.68,21.51 V32.26 H419.43 V21.51 H408.68 Z M430.19,21.51 V32.26 H440.94 V21.51 H430.19 Z M462.45,21.51 V32.26 H473.21 V21.51 H462.45 Z M494.72,21.51 V32.26 H505.47 V21.51 H494.72 Z M516.23,21.51 V32.26 H526.98 V21.51 H516.23 Z M526.98,21.51 V32.26 H537.74 V21.51 H526.98 Z M537.74,21.51 V32.26 H548.49 V21.51 H537.74 Z M559.25,21.51 V32.26 H570 V21.51 H559.25 Z M0,32.26 V43.02 H10.75 V32.26 H0 Z M21.51,32.26 V43.02 H32.26 V32.26 H21.51 Z M32.26,32.26 V43.02 H43.02 V32.26 H32.26 Z M43.02,32.26 V43.02 H53.77 V32.26 H43.02 Z M64.53,32.26 V43.02 H75.28 V32.26 H64.53 Z M86.04,32.26 V43.02 H96.79 V32.26 H86.04 Z M107.55,32.26 V43.02 H118.30 V32.26 H107.55 Z M118.30,32.26 V43.02 H129.06 V32.26 H118.30 Z M129.06,32.26 V43.02 H139.81 V32.26 H129.06 Z M172.08,32.26 V43.02 H182.83 V32.26 H172.08 Z M182.83,32.26 V43.02 H193.58 V32.26 H182.83 Z M204.34,32.26 V43.02 H215.09 V32.26 H204.34 Z M215.09,32.26 V43.02 H225.85 V32.26 H215.09 Z M247.36,32.26 V43.02 H258.11 V32.26 H247.36 Z M258.11,32.26 V43.02 H268.87 V32.26 H258.11 Z M279.62,32.26 V43.02 H290.38 V32.26 H279.62 Z M322.64,32.26 V43.02 H333.40 V32.26 H322.64 Z M344.15,32.26 V43.02 H354.91 V32.26 H344.15 Z M354.91,32.26 V43.02 H365.66 V32.26 H354.91 Z M365.66,32.26 V43.02 H376.42 V32.26 H365.66 Z M376.42,32.26 V43.02 H387.17 V32.26 H376.42 Z M397.92,32.26 V43.02 H408.68 V32.26 H397.92 Z M419.43,32.26 V43.02 H430.19 V32.26 H419.43 Z M430.19,32.26 V43.02 H440.94 V32.26 H430.19 Z M440.94,32.26 V43.02 H451.70 V32.26 H440.94 Z M451.70,32.26 V43.02 H462.45 V32.26 H451.70 Z M473.21,32.26 V43.02 H483.96 V32.26 H473.21 Z M494.72,32.26 V43.02 H505.47 V32.26 H494.72 Z M516.23,32.26 V43.02 H526.98 V32.26 H516.23 Z M526.98,32.26 V43.02 H537.74 V32.26 H526.98 Z M537.74,32.26 V43.02 H548.49 V32.26 H537.74 Z M559.25,32.26 V43.02 H570 V32.26 H559.25 Z M0,43.02 V53.77 H10.75 V43.02 H0 Z M21.51,43.02 V53.77 H32.26 V43.02 H21.51 Z M32.26,43.02 V53.77 H43.02 V43.02 H32.26 Z M43.02,43.02 V53.77 H53.77 V43.02 H43.02 Z M64.53,43.02 V53.77 H75.28 V43.02 H64.53 Z M86.04,43.02 V53.77 H96.79 V43.02 H86.04 Z M118.30,43.02 V53.77 H129.06 V43.02 H118.30 Z M129.06,43.02 V53.77 H139.81 V43.02 H129.06 Z M139.81,43.02 V53.77 H150.57 V43.02 H139.81 Z M161.32,43.02 V53.77 H172.08 V43.02 H161.32 Z M193.58,43.02 V53.77 H204.34 V43.02 H193.58 Z M204.34,43.02 V53.77 H215.09 V43.02 H204.34 Z M215.09,43.02 V53.77 H225.85 V43.02 H215.09 Z M236.60,43.02 V53.77 H247.36 V43.02 H236.60 Z M247.36,43.02 V53.77 H258.11 V43.02 H247.36 Z M258.11,43.02 V53.77 H268.87 V43.02 H258.11 Z M268.87,43.02 V53.77 H279.62 V43.02 H268.87 Z M279.62,43.02 V53.77 H290.38 V43.02 H279.62 Z M290.38,43.02 V53.77 H301.13 V43.02 H290.38 Z M301.13,43.02 V53.77 H311.89 V43.02 H301.13 Z M311.89,43.02 V53.77 H322.64 V43.02 H311.89 Z M322.64,43.02 V53.77 H333.40 V43.02 H322.64 Z M354.91,43.02 V53.77 H365.66 V43.02 H354.91 Z M387.17,43.02 V53.77 H397.92 V43.02 H387.17 Z M430.19,43.02 V53.77 H440.94 V43.02 H430.19 Z M440.94,43.02 V53.77 H451.70 V43.02 H440.94 Z M451.70,43.02 V53.77 H462.45 V43.02 H451.70 Z M494.72,43.02 V53.77 H505.47 V43.02 H494.72 Z M516.23,43.02 V53.77 H526.98 V43.02 H516.23 Z M526.98,43.02 V53.77 H537.74 V43.02 H526.98 Z M537.74,43.02 V53.77 H548.49 V43.02 H537.74 Z M559.25,43.02 V53.77 H570 V43.02 H559.25 Z M0,53.77 V64.53 H10.75 V53.77 H0 Z M64.53,53.77 V64.53 H75.28 V53.77 H64.53 Z M86.04,53.77 V64.53 H96.79 V53.77 H86.04 Z M107.55,53.77 V64.53 H118.30 V53.77 H107.55 Z M118.30,53.77 V64.53 H129.06 V53.77 H118.30 Z M139.81,53.77 V64.53 H150.57 V53.77 H139.81 Z M161.32,53.77 V64.53 H172.08 V53.77 H161.32 Z M204.34,53.77 V64.53 H215.09 V53.77 H204.34 Z M225.85,53.77 V64.53 H236.60 V53.77 H225.85 Z M258.11,53.77 V64.53 H268.87 V53.77 H258.11 Z M301.13,53.77 V64.53 H311.89 V53.77 H301.13 Z M322.64,53.77 V64.53 H333.40 V53.77 H322.64 Z M333.40,53.77 V64.53 H344.15 V53.77 H333.40 Z M365.66,53.77 V64.53 H376.42 V53.77 H365.66 Z M387.17,53.77 V64.53 H397.92 V53.77 H387.17 Z M430.19,53.77 V64.53 H440.94 V53.77 H430.19 Z M440.94,53.77 V64.53 H451.70 V53.77 H440.94 Z M451.70,53.77 V64.53 H462.45 V53.77 H451.70 Z M494.72,53.77 V64.53 H505.47 V53.77 H494.72 Z M559.25,53.77 V64.53 H570 V53.77 H559.25 Z M0,64.53 V75.28 H10.75 V64.53 H0 Z M10.75,64.53 V75.28 H21.51 V64.53 H10.75 Z M21.51,64.53 V75.28 H32.26 V64.53 H21.51 Z M32.26,64.53 V75.28 H43.02 V64.53 H32.26 Z M43.02,64.53 V75.28 H53.77 V64.53 H43.02 Z M53.77,64.53 V75.28 H64.53 V64.53 H53.77 Z M64.53,64.53 V75.28 H75.28 V64.53 H64.53 Z M86.04,64.53 V75.28 H96.79 V64.53 H86.04 Z M107.55,64.53 V75.28 H118.30 V64.53 H107.55 Z M129.06,64.53 V75.28 H139.81 V64.53 H129.06 Z M150.57,64.53 V75.28 H161.32 V64.53 H150.57 Z M172.08,64.53 V75.28 H182.83 V64.53 H172.08 Z M193.58,64.53 V75.28 H204.34 V64.53 H193.58 Z M215.09,64.53 V75.28 H225.85 V64.53 H215.09 Z M236.60,64.53 V75.28 H247.36 V64.53 H236.60 Z M258.11,64.53 V75.28 H268.87 V64.53 H258.11 Z M279.62,64.53 V75.28 H290.38 V64.53 H279.62 Z M301.13,64.53 V75.28 H311.89 V64.53 H301.13 Z M322.64,64.53 V75.28 H333.40 V64.53 H322.64 Z M344.15,64.53 V75.28 H354.91 V64.53 H344.15 Z M365.66,64.53 V75.28 H376.42 V64.53 H365.66 Z M387.17,64.53 V75.28 H397.92 V64.53 H387.17 Z M408.68,64.53 V75.28 H419.43 V64.53 H408.68 Z M430.19,64.53 V75.28 H440.94 V64.53 H430.19 Z M451.70,64.53 V75.28 H462.45 V64.53 H451.70 Z M473.21,64.53 V75.28 H483.96 V64.53 H473.21 Z M494.72,64.53 V75.28 H505.47 V64.53 H494.72 Z M505.47,64.53 V75.28 H516.23 V64.53 H505.47 Z M516.23,64.53 V75.28 H526.98 V64.53 H516.23 Z M526.98,64.53 V75.28 H537.74 V64.53 H526.98 Z M537.74,64.53 V75.28 H548.49 V64.53 H537.74 Z M548.49,64.53 V75.28 H559.25 V64.53 H548.49 Z M559.25,64.53 V75.28 H570 V64.53 H559.25 Z M86.04,75.28 V86.04 H96.79 V75.28 H86.04 Z M96.79,75.28 V86.04 H107.55 V75.28 H96.79 Z M129.06,75.28 V86.04 H139.81 V75.28 H129.06 Z M139.81,75.28 V86.04 H150.57 V75.28 H139.81 Z M150.57,75.28 V86.04 H161.32 V75.28 H150.57 Z M204.34,75.28 V86.04 H215.09 V75.28 H204.34 Z M258.11,75.28 V86.04 H268.87 V75.28 H258.11 Z M301.13,75.28 V86.04 H311.89 V75.28 H301.13 Z M322.64,75.28 V86.04 H333.40 V75.28 H322.64 Z M344.15,75.28 V86.04 H354.91 V75.28 H344.15 Z M365.66,75.28 V86.04 H376.42 V75.28 H365.66 Z M387.17,75.28 V86.04 H397.92 V75.28 H387.17 Z M419.43,75.28 V86.04 H430.19 V75.28 H419.43 Z M440.94,75.28 V86.04 H451.70 V75.28 H440.94 Z M0,86.04 V96.79 H10.75 V86.04 H0 Z M10.75,86.04 V96.79 H21.51 V86.04 H10.75 Z M21.51,86.04 V96.79 H32.26 V86.04 H21.51 Z M43.02,86.04 V96.79 H53.77 V86.04 H43.02 Z M64.53,86.04 V96.79 H75.28 V86.04 H64.53 Z M86.04,86.04 V96.79 H96.79 V86.04 H86.04 Z M161.32,86.04 V96.79 H172.08 V86.04 H161.32 Z M182.83,86.04 V96.79 H193.58 V86.04 H182.83 Z M236.60,86.04 V96.79 H247.36 V86.04 H236.60 Z M258.11,86.04 V96.79 H268.87 V86.04 H258.11 Z M268.87,86.04 V96.79 H279.62 V86.04 H268.87 Z M279.62,86.04 V96.79 H290.38 V86.04 H279.62 Z M290.38,86.04 V96.79 H301.13 V86.04 H290.38 Z M301.13,86.04 V96.79 H311.89 V86.04 H301.13 Z M344.15,86.04 V96.79 H354.91 V86.04 H344.15 Z M376.42,86.04 V96.79 H387.17 V86.04 H376.42 Z M387.17,86.04 V96.79 H397.92 V86.04 H387.17 Z M397.92,86.04 V96.79 H408.68 V86.04 H397.92 Z M408.68,86.04 V96.79 H419.43 V86.04 H408.68 Z M419.43,86.04 V96.79 H430.19 V86.04 H419.43 Z M430.19,86.04 V96.79 H440.94 V86.04 H430.19 Z M451.70,86.04 V96.79 H462.45 V86.04 H451.70 Z M473.21,86.04 V96.79 H483.96 V86.04 H473.21 Z M483.96,86.04 V96.79 H494.72 V86.04 H483.96 Z M494.72,86.04 V96.79 H505.47 V86.04 H494.72 Z M505.47,86.04 V96.79 H516.23 V86.04 H505.47 Z M516.23,86.04 V96.79 H526.98 V86.04 H516.23 Z M526.98,86.04 V96.79 H537.74 V86.04 H526.98 Z M559.25,86.04 V96.79 H570 V86.04 H559.25 Z M43.02,96.79 V107.55 H53.77 V96.79 H43.02 Z M53.77,96.79 V107.55 H64.53 V96.79 H53.77 Z M86.04,96.79 V107.55 H96.79 V96.79 H86.04 Z M129.06,96.79 V107.55 H139.81 V96.79 H129.06 Z M150.57,96.79 V107.55 H161.32 V96.79 H150.57 Z M161.32,96.79 V107.55 H172.08 V96.79 H161.32 Z M182.83,96.79 V107.55 H193.58 V96.79 H182.83 Z M193.58,96.79 V107.55 H204.34 V96.79 H193.58 Z M215.09,96.79 V107.55 H225.85 V96.79 H215.09 Z M225.85,96.79 V107.55 H236.60 V96.79 H225.85 Z M236.60,96.79 V107.55 H247.36 V96.79 H236.60 Z M247.36,96.79 V107.55 H258.11 V96.79 H247.36 Z M279.62,96.79 V107.55 H290.38 V96.79 H279.62 Z M290.38,96.79 V107.55 H301.13 V96.79 H290.38 Z M301.13,96.79 V107.55 H311.89 V96.79 H301.13 Z M344.15,96.79 V107.55 H354.91 V96.79 H344.15 Z M354.91,96.79 V107.55 H365.66 V96.79 H354.91 Z M376.42,96.79 V107.55 H387.17 V96.79 H376.42 Z M387.17,96.79 V107.55 H397.92 V96.79 H387.17 Z M397.92,96.79 V107.55 H408.68 V96.79 H397.92 Z M419.43,96.79 V107.55 H430.19 V96.79 H419.43 Z M451.70,96.79 V107.55 H462.45 V96.79 H451.70 Z M473.21,96.79 V107.55 H483.96 V96.79 H473.21 Z M483.96,96.79 V107.55 H494.72 V96.79 H483.96 Z M494.72,96.79 V107.55 H505.47 V96.79 H494.72 Z M21.51,107.55 V118.30 H32.26 V107.55 H21.51 Z M53.77,107.55 V118.30 H64.53 V107.55 H53.77 Z M64.53,107.55 V118.30 H75.28 V107.55 H64.53 Z M86.04,107.55 V118.30 H96.79 V107.55 H86.04 Z M107.55,107.55 V118.30 H118.30 V107.55 H107.55 Z M118.30,107.55 V118.30 H129.06 V107.55 H118.30 Z M129.06,107.55 V118.30 H139.81 V107.55 H129.06 Z M139.81,107.55 V118.30 H150.57 V107.55 H139.81 Z M150.57,107.55 V118.30 H161.32 V107.55 H150.57 Z M182.83,107.55 V118.30 H193.58 V107.55 H182.83 Z M204.34,107.55 V118.30 H215.09 V107.55 H204.34 Z M215.09,107.55 V118.30 H225.85 V107.55 H215.09 Z M258.11,107.55 V118.30 H268.87 V107.55 H258.11 Z M268.87,107.55 V118.30 H279.62 V107.55 H268.87 Z M290.38,107.55 V118.30 H301.13 V107.55 H290.38 Z M322.64,107.55 V118.30 H333.40 V107.55 H322.64 Z M333.40,107.55 V118.30 H344.15 V107.55 H333.40 Z M344.15,107.55 V118.30 H354.91 V107.55 H344.15 Z M365.66,107.55 V118.30 H376.42 V107.55 H365.66 Z M376.42,107.55 V118.30 H387.17 V107.55 H376.42 Z M397.92,107.55 V118.30 H408.68 V107.55 H397.92 Z M419.43,107.55 V118.30 H430.19 V107.55 H419.43 Z M440.94,107.55 V118.30 H451.70 V107.55 H440.94 Z M451.70,107.55 V118.30 H462.45 V107.55 H451.70 Z M483.96,107.55 V118.30 H494.72 V107.55 H483.96 Z M494.72,107.55 V118.30 H505.47 V107.55 H494.72 Z M505.47,107.55 V118.30 H516.23 V107.55 H505.47 Z M537.74,107.55 V118.30 H548.49 V107.55 H537.74 Z M559.25,107.55 V118.30 H570 V107.55 H559.25 Z M10.75,118.30 V129.06 H21.51 V118.30 H10.75 Z M21.51,118.30 V129.06 H32.26 V118.30 H21.51 Z M32.26,118.30 V129.06 H43.02 V118.30 H32.26 Z M53.77,118.30 V129.06 H64.53 V118.30 H53.77 Z M86.04,118.30 V129.06 H96.79 V118.30 H86.04 Z M161.32,118.30 V129.06 H172.08 V118.30 H161.32 Z M182.83,118.30 V129.06 H193.58 V118.30 H182.83 Z M193.58,118.30 V129.06 H204.34 V118.30 H193.58 Z M204.34,118.30 V129.06 H215.09 V118.30 H204.34 Z M225.85,118.30 V129.06 H236.60 V118.30 H225.85 Z M236.60,118.30 V129.06 H247.36 V118.30 H236.60 Z M247.36,118.30 V129.06 H258.11 V118.30 H247.36 Z M268.87,118.30 V129.06 H279.62 V118.30 H268.87 Z M290.38,118.30 V129.06 H301.13 V118.30 H290.38 Z M301.13,118.30 V129.06 H311.89 V118.30 H301.13 Z M311.89,118.30 V129.06 H322.64 V118.30 H311.89 Z M322.64,118.30 V129.06 H333.40 V118.30 H322.64 Z M344.15,118.30 V129.06 H354.91 V118.30 H344.15 Z M354.91,118.30 V129.06 H365.66 V118.30 H354.91 Z M376.42,118.30 V129.06 H387.17 V118.30 H376.42 Z M387.17,118.30 V129.06 H397.92 V118.30 H387.17 Z M419.43,118.30 V129.06 H430.19 V118.30 H419.43 Z M430.19,118.30 V129.06 H440.94 V118.30 H430.19 Z M440.94,118.30 V129.06 H451.70 V118.30 H440.94 Z M451.70,118.30 V129.06 H462.45 V118.30 H451.70 Z M462.45,118.30 V129.06 H473.21 V118.30 H462.45 Z M483.96,118.30 V129.06 H494.72 V118.30 H483.96 Z M494.72,118.30 V129.06 H505.47 V118.30 H494.72 Z M526.98,118.30 V129.06 H537.74 V118.30 H526.98 Z M548.49,118.30 V129.06 H559.25 V118.30 H548.49 Z M0,129.06 V139.81 H10.75 V129.06 H0 Z M10.75,129.06 V139.81 H21.51 V129.06 H10.75 Z M21.51,129.06 V139.81 H32.26 V129.06 H21.51 Z M32.26,129.06 V139.81 H43.02 V129.06 H32.26 Z M43.02,129.06 V139.81 H53.77 V129.06 H43.02 Z M64.53,129.06 V139.81 H75.28 V129.06 H64.53 Z M86.04,129.06 V139.81 H96.79 V129.06 H86.04 Z M107.55,129.06 V139.81 H118.30 V129.06 H107.55 Z M139.81,129.06 V139.81 H150.57 V129.06 H139.81 Z M225.85,129.06 V139.81 H236.60 V129.06 H225.85 Z M236.60,129.06 V139.81 H247.36 V129.06 H236.60 Z M279.62,129.06 V139.81 H290.38 V129.06 H279.62 Z M290.38,129.06 V139.81 H301.13 V129.06 H290.38 Z M301.13,129.06 V139.81 H311.89 V129.06 H301.13 Z M311.89,129.06 V139.81 H322.64 V129.06 H311.89 Z M322.64,129.06 V139.81 H333.40 V129.06 H322.64 Z M344.15,129.06 V139.81 H354.91 V129.06 H344.15 Z M354.91,129.06 V139.81 H365.66 V129.06 H354.91 Z M397.92,129.06 V139.81 H408.68 V129.06 H397.92 Z M419.43,129.06 V139.81 H430.19 V129.06 H419.43 Z M430.19,129.06 V139.81 H440.94 V129.06 H430.19 Z M451.70,129.06 V139.81 H462.45 V129.06 H451.70 Z M462.45,129.06 V139.81 H473.21 V129.06 H462.45 Z M473.21,129.06 V139.81 H483.96 V129.06 H473.21 Z M483.96,129.06 V139.81 H494.72 V129.06 H483.96 Z M505.47,129.06 V139.81 H516.23 V129.06 H505.47 Z M526.98,129.06 V139.81 H537.74 V129.06 H526.98 Z M537.74,129.06 V139.81 H548.49 V129.06 H537.74 Z M0,139.81 V150.57 H10.75 V139.81 H0 Z M10.75,139.81 V150.57 H21.51 V139.81 H10.75 Z M96.79,139.81 V150.57 H107.55 V139.81 H96.79 Z M139.81,139.81 V150.57 H150.57 V139.81 H139.81 Z M150.57,139.81 V150.57 H161.32 V139.81 H150.57 Z M161.32,139.81 V150.57 H172.08 V139.81 H161.32 Z M172.08,139.81 V150.57 H182.83 V139.81 H172.08 Z M215.09,139.81 V150.57 H225.85 V139.81 H215.09 Z M258.11,139.81 V150.57 H268.87 V139.81 H258.11 Z M268.87,139.81 V150.57 H279.62 V139.81 H268.87 Z M290.38,139.81 V150.57 H301.13 V139.81 H290.38 Z M301.13,139.81 V150.57 H311.89 V139.81 H301.13 Z M322.64,139.81 V150.57 H333.40 V139.81 H322.64 Z M344.15,139.81 V150.57 H354.91 V139.81 H344.15 Z M354.91,139.81 V150.57 H365.66 V139.81 H354.91 Z M376.42,139.81 V150.57 H387.17 V139.81 H376.42 Z M387.17,139.81 V150.57 H397.92 V139.81 H387.17 Z M397.92,139.81 V150.57 H408.68 V139.81 H397.92 Z M408.68,139.81 V150.57 H419.43 V139.81 H408.68 Z M462.45,139.81 V150.57 H473.21 V139.81 H462.45 Z M473.21,139.81 V150.57 H483.96 V139.81 H473.21 Z M494.72,139.81 V150.57 H505.47 V139.81 H494.72 Z M516.23,139.81 V150.57 H526.98 V139.81 H516.23 Z M526.98,139.81 V150.57 H537.74 V139.81 H526.98 Z M559.25,139.81 V150.57 H570 V139.81 H559.25 Z M10.75,150.57 V161.32 H21.51 V150.57 H10.75 Z M43.02,150.57 V161.32 H53.77 V150.57 H43.02 Z M53.77,150.57 V161.32 H64.53 V150.57 H53.77 Z M64.53,150.57 V161.32 H75.28 V150.57 H64.53 Z M75.28,150.57 V161.32 H86.04 V150.57 H75.28 Z M150.57,150.57 V161.32 H161.32 V150.57 H150.57 Z M172.08,150.57 V161.32 H182.83 V150.57 H172.08 Z M182.83,150.57 V161.32 H193.58 V150.57 H182.83 Z M215.09,150.57 V161.32 H225.85 V150.57 H215.09 Z M225.85,150.57 V161.32 H236.60 V150.57 H225.85 Z M268.87,150.57 V161.32 H279.62 V150.57 H268.87 Z M290.38,150.57 V161.32 H301.13 V150.57 H290.38 Z M301.13,150.57 V161.32 H311.89 V150.57 H301.13 Z M311.89,150.57 V161.32 H322.64 V150.57 H311.89 Z M322.64,150.57 V161.32 H333.40 V150.57 H322.64 Z M344.15,150.57 V161.32 H354.91 V150.57 H344.15 Z M354.91,150.57 V161.32 H365.66 V150.57 H354.91 Z M365.66,150.57 V161.32 H376.42 V150.57 H365.66 Z M397.92,150.57 V161.32 H408.68 V150.57 H397.92 Z M408.68,150.57 V161.32 H419.43 V150.57 H408.68 Z M430.19,150.57 V161.32 H440.94 V150.57 H430.19 Z M451.70,150.57 V161.32 H462.45 V150.57 H451.70 Z M473.21,150.57 V161.32 H483.96 V150.57 H473.21 Z M494.72,150.57 V161.32 H505.47 V150.57 H494.72 Z M505.47,150.57 V161.32 H516.23 V150.57 H505.47 Z M526.98,150.57 V161.32 H537.74 V150.57 H526.98 Z M537.74,150.57 V161.32 H548.49 V150.57 H537.74 Z M559.25,150.57 V161.32 H570 V150.57 H559.25 Z M32.26,161.32 V172.08 H43.02 V161.32 H32.26 Z M43.02,161.32 V172.08 H53.77 V161.32 H43.02 Z M53.77,161.32 V172.08 H64.53 V161.32 H53.77 Z M75.28,161.32 V172.08 H86.04 V161.32 H75.28 Z M86.04,161.32 V172.08 H96.79 V161.32 H86.04 Z M150.57,161.32 V172.08 H161.32 V161.32 H150.57 Z M161.32,161.32 V172.08 H172.08 V161.32 H161.32 Z M182.83,161.32 V172.08 H193.58 V161.32 H182.83 Z M193.58,161.32 V172.08 H204.34 V161.32 H193.58 Z M215.09,161.32 V172.08 H225.85 V161.32 H215.09 Z M247.36,161.32 V172.08 H258.11 V161.32 H247.36 Z M279.62,161.32 V172.08 H290.38 V161.32 H279.62 Z M301.13,161.32 V172.08 H311.89 V161.32 H301.13 Z M311.89,161.32 V172.08 H322.64 V161.32 H311.89 Z M322.64,161.32 V172.08 H333.40 V161.32 H322.64 Z M333.40,161.32 V172.08 H344.15 V161.32 H333.40 Z M344.15,161.32 V172.08 H354.91 V161.32 H344.15 Z M354.91,161.32 V172.08 H365.66 V161.32 H354.91 Z M376.42,161.32 V172.08 H387.17 V161.32 H376.42 Z M408.68,161.32 V172.08 H419.43 V161.32 H408.68 Z M419.43,161.32 V172.08 H430.19 V161.32 H419.43 Z M440.94,161.32 V172.08 H451.70 V161.32 H440.94 Z M483.96,161.32 V172.08 H494.72 V161.32 H483.96 Z M505.47,161.32 V172.08 H516.23 V161.32 H505.47 Z M526.98,161.32 V172.08 H537.74 V161.32 H526.98 Z M537.74,161.32 V172.08 H548.49 V161.32 H537.74 Z M559.25,161.32 V172.08 H570 V161.32 H559.25 Z M0,172.08 V182.83 H10.75 V172.08 H0 Z M21.51,172.08 V182.83 H32.26 V172.08 H21.51 Z M32.26,172.08 V182.83 H43.02 V172.08 H32.26 Z M43.02,172.08 V182.83 H53.77 V172.08 H43.02 Z M64.53,172.08 V182.83 H75.28 V172.08 H64.53 Z M86.04,172.08 V182.83 H96.79 V172.08 H86.04 Z M96.79,172.08 V182.83 H107.55 V172.08 H96.79 Z M107.55,172.08 V182.83 H118.30 V172.08 H107.55 Z M129.06,172.08 V182.83 H139.81 V172.08 H129.06 Z M139.81,172.08 V182.83 H150.57 V172.08 H139.81 Z M150.57,172.08 V182.83 H161.32 V172.08 H150.57 Z M161.32,172.08 V182.83 H172.08 V172.08 H161.32 Z M193.58,172.08 V182.83 H204.34 V172.08 H193.58 Z M204.34,172.08 V182.83 H215.09 V172.08 H204.34 Z M215.09,172.08 V182.83 H225.85 V172.08 H215.09 Z M225.85,172.08 V182.83 H236.60 V172.08 H225.85 Z M236.60,172.08 V182.83 H247.36 V172.08 H236.60 Z M247.36,172.08 V182.83 H258.11 V172.08 H247.36 Z M258.11,172.08 V182.83 H268.87 V172.08 H258.11 Z M290.38,172.08 V182.83 H301.13 V172.08 H290.38 Z M301.13,172.08 V182.83 H311.89 V172.08 H301.13 Z M333.40,172.08 V182.83 H344.15 V172.08 H333.40 Z M365.66,172.08 V182.83 H376.42 V172.08 H365.66 Z M451.70,172.08 V182.83 H462.45 V172.08 H451.70 Z M483.96,172.08 V182.83 H494.72 V172.08 H483.96 Z M494.72,172.08 V182.83 H505.47 V172.08 H494.72 Z M505.47,172.08 V182.83 H516.23 V172.08 H505.47 Z M548.49,172.08 V182.83 H559.25 V172.08 H548.49 Z M559.25,172.08 V182.83 H570 V172.08 H559.25 Z M0,182.83 V193.58 H10.75 V182.83 H0 Z M10.75,182.83 V193.58 H21.51 V182.83 H10.75 Z M43.02,182.83 V193.58 H53.77 V182.83 H43.02 Z M75.28,182.83 V193.58 H86.04 V182.83 H75.28 Z M107.55,182.83 V193.58 H118.30 V182.83 H107.55 Z M129.06,182.83 V193.58 H139.81 V182.83 H129.06 Z M150.57,182.83 V193.58 H161.32 V182.83 H150.57 Z M161.32,182.83 V193.58 H172.08 V182.83 H161.32 Z M182.83,182.83 V193.58 H193.58 V182.83 H182.83 Z M193.58,182.83 V193.58 H204.34 V182.83 H193.58 Z M215.09,182.83 V193.58 H225.85 V182.83 H215.09 Z M225.85,182.83 V193.58 H236.60 V182.83 H225.85 Z M236.60,182.83 V193.58 H247.36 V182.83 H236.60 Z M247.36,182.83 V193.58 H258.11 V182.83 H247.36 Z M258.11,182.83 V193.58 H268.87 V182.83 H258.11 Z M268.87,182.83 V193.58 H279.62 V182.83 H268.87 Z M279.62,182.83 V193.58 H290.38 V182.83 H279.62 Z M301.13,182.83 V193.58 H311.89 V182.83 H301.13 Z M344.15,182.83 V193.58 H354.91 V182.83 H344.15 Z M376.42,182.83 V193.58 H387.17 V182.83 H376.42 Z M387.17,182.83 V193.58 H397.92 V182.83 H387.17 Z M397.92,182.83 V193.58 H408.68 V182.83 H397.92 Z M419.43,182.83 V193.58 H430.19 V182.83 H419.43 Z M430.19,182.83 V193.58 H440.94 V182.83 H430.19 Z M473.21,182.83 V193.58 H483.96 V182.83 H473.21 Z M494.72,182.83 V193.58 H505.47 V182.83 H494.72 Z M505.47,182.83 V193.58 H516.23 V182.83 H505.47 Z M516.23,182.83 V193.58 H526.98 V182.83 H516.23 Z M548.49,182.83 V193.58 H559.25 V182.83 H548.49 Z M559.25,182.83 V193.58 H570 V182.83 H559.25 Z M43.02,193.58 V204.34 H53.77 V193.58 H43.02 Z M64.53,193.58 V204.34 H75.28 V193.58 H64.53 Z M75.28,193.58 V204.34 H86.04 V193.58 H75.28 Z M107.55,193.58 V204.34 H118.30 V193.58 H107.55 Z M129.06,193.58 V204.34 H139.81 V193.58 H129.06 Z M172.08,193.58 V204.34 H182.83 V193.58 H172.08 Z M204.34,193.58 V204.34 H215.09 V193.58 H204.34 Z M215.09,193.58 V204.34 H225.85 V193.58 H215.09 Z M225.85,193.58 V204.34 H236.60 V193.58 H225.85 Z M236.60,193.58 V204.34 H247.36 V193.58 H236.60 Z M247.36,193.58 V204.34 H258.11 V193.58 H247.36 Z M258.11,193.58 V204.34 H268.87 V193.58 H258.11 Z M268.87,193.58 V204.34 H279.62 V193.58 H268.87 Z M279.62,193.58 V204.34 H290.38 V193.58 H279.62 Z M301.13,193.58 V204.34 H311.89 V193.58 H301.13 Z M311.89,193.58 V204.34 H322.64 V193.58 H311.89 Z M344.15,193.58 V204.34 H354.91 V193.58 H344.15 Z M354.91,193.58 V204.34 H365.66 V193.58 H354.91 Z M376.42,193.58 V204.34 H387.17 V193.58 H376.42 Z M387.17,193.58 V204.34 H397.92 V193.58 H387.17 Z M397.92,193.58 V204.34 H408.68 V193.58 H397.92 Z M473.21,193.58 V204.34 H483.96 V193.58 H473.21 Z M483.96,193.58 V204.34 H494.72 V193.58 H483.96 Z M516.23,193.58 V204.34 H526.98 V193.58 H516.23 Z M10.75,204.34 V215.09 H21.51 V204.34 H10.75 Z M43.02,204.34 V215.09 H53.77 V204.34 H43.02 Z M75.28,204.34 V215.09 H86.04 V204.34 H75.28 Z M96.79,204.34 V215.09 H107.55 V204.34 H96.79 Z M172.08,204.34 V215.09 H182.83 V204.34 H172.08 Z M204.34,204.34 V215.09 H215.09 V204.34 H204.34 Z M236.60,204.34 V215.09 H247.36 V204.34 H236.60 Z M258.11,204.34 V215.09 H268.87 V204.34 H258.11 Z M268.87,204.34 V215.09 H279.62 V204.34 H268.87 Z M279.62,204.34 V215.09 H290.38 V204.34 H279.62 Z M290.38,204.34 V215.09 H301.13 V204.34 H290.38 Z M344.15,204.34 V215.09 H354.91 V204.34 H344.15 Z M354.91,204.34 V215.09 H365.66 V204.34 H354.91 Z M376.42,204.34 V215.09 H387.17 V204.34 H376.42 Z M387.17,204.34 V215.09 H397.92 V204.34 H387.17 Z M397.92,204.34 V215.09 H408.68 V204.34 H397.92 Z M408.68,204.34 V215.09 H419.43 V204.34 H408.68 Z M430.19,204.34 V215.09 H440.94 V204.34 H430.19 Z M451.70,204.34 V215.09 H462.45 V204.34 H451.70 Z M473.21,204.34 V215.09 H483.96 V204.34 H473.21 Z M483.96,204.34 V215.09 H494.72 V204.34 H483.96 Z M505.47,204.34 V215.09 H516.23 V204.34 H505.47 Z M537.74,204.34 V215.09 H548.49 V204.34 H537.74 Z M548.49,204.34 V215.09 H559.25 V204.34 H548.49 Z M0,215.09 V225.85 H10.75 V215.09 H0 Z M21.51,215.09 V225.85 H32.26 V215.09 H21.51 Z M32.26,215.09 V225.85 H43.02 V215.09 H32.26 Z M53.77,215.09 V225.85 H64.53 V215.09 H53.77 Z M64.53,215.09 V225.85 H75.28 V215.09 H64.53 Z M86.04,215.09 V225.85 H96.79 V215.09 H86.04 Z M150.57,215.09 V225.85 H161.32 V215.09 H150.57 Z M172.08,215.09 V225.85 H182.83 V215.09 H172.08 Z M236.60,215.09 V225.85 H247.36 V215.09 H236.60 Z M247.36,215.09 V225.85 H258.11 V215.09 H247.36 Z M268.87,215.09 V225.85 H279.62 V215.09 H268.87 Z M279.62,215.09 V225.85 H290.38 V215.09 H279.62 Z M290.38,215.09 V225.85 H301.13 V215.09 H290.38 Z M301.13,215.09 V225.85 H311.89 V215.09 H301.13 Z M322.64,215.09 V225.85 H333.40 V215.09 H322.64 Z M397.92,215.09 V225.85 H408.68 V215.09 H397.92 Z M419.43,215.09 V225.85 H430.19 V215.09 H419.43 Z M430.19,215.09 V225.85 H440.94 V215.09 H430.19 Z M473.21,215.09 V225.85 H483.96 V215.09 H473.21 Z M516.23,215.09 V225.85 H526.98 V215.09 H516.23 Z M548.49,215.09 V225.85 H559.25 V215.09 H548.49 Z M559.25,215.09 V225.85 H570 V215.09 H559.25 Z M0,225.85 V236.60 H10.75 V225.85 H0 Z M21.51,225.85 V236.60 H32.26 V225.85 H21.51 Z M32.26,225.85 V236.60 H43.02 V225.85 H32.26 Z M86.04,225.85 V236.60 H96.79 V225.85 H86.04 Z M118.30,225.85 V236.60 H129.06 V225.85 H118.30 Z M139.81,225.85 V236.60 H150.57 V225.85 H139.81 Z M161.32,225.85 V236.60 H172.08 V225.85 H161.32 Z M172.08,225.85 V236.60 H182.83 V225.85 H172.08 Z M193.58,225.85 V236.60 H204.34 V225.85 H193.58 Z M204.34,225.85 V236.60 H215.09 V225.85 H204.34 Z M215.09,225.85 V236.60 H225.85 V225.85 H215.09 Z M225.85,225.85 V236.60 H236.60 V225.85 H225.85 Z M236.60,225.85 V236.60 H247.36 V225.85 H236.60 Z M247.36,225.85 V236.60 H258.11 V225.85 H247.36 Z M258.11,225.85 V236.60 H268.87 V225.85 H258.11 Z M279.62,225.85 V236.60 H290.38 V225.85 H279.62 Z M301.13,225.85 V236.60 H311.89 V225.85 H301.13 Z M322.64,225.85 V236.60 H333.40 V225.85 H322.64 Z M365.66,225.85 V236.60 H376.42 V225.85 H365.66 Z M387.17,225.85 V236.60 H397.92 V225.85 H387.17 Z M397.92,225.85 V236.60 H408.68 V225.85 H397.92 Z M451.70,225.85 V236.60 H462.45 V225.85 H451.70 Z M473.21,225.85 V236.60 H483.96 V225.85 H473.21 Z M483.96,225.85 V236.60 H494.72 V225.85 H483.96 Z M494.72,225.85 V236.60 H505.47 V225.85 H494.72 Z M505.47,225.85 V236.60 H516.23 V225.85 H505.47 Z M516.23,225.85 V236.60 H526.98 V225.85 H516.23 Z M526.98,225.85 V236.60 H537.74 V225.85 H526.98 Z M0,236.60 V247.36 H10.75 V236.60 H0 Z M10.75,236.60 V247.36 H21.51 V236.60 H10.75 Z M32.26,236.60 V247.36 H43.02 V236.60 H32.26 Z M64.53,236.60 V247.36 H75.28 V236.60 H64.53 Z M86.04,236.60 V247.36 H96.79 V236.60 H86.04 Z M96.79,236.60 V247.36 H107.55 V236.60 H96.79 Z M118.30,236.60 V247.36 H129.06 V236.60 H118.30 Z M129.06,236.60 V247.36 H139.81 V236.60 H129.06 Z M139.81,236.60 V247.36 H150.57 V236.60 H139.81 Z M150.57,236.60 V247.36 H161.32 V236.60 H150.57 Z M193.58,236.60 V247.36 H204.34 V236.60 H193.58 Z M215.09,236.60 V247.36 H225.85 V236.60 H215.09 Z M225.85,236.60 V247.36 H236.60 V236.60 H225.85 Z M258.11,236.60 V247.36 H268.87 V236.60 H258.11 Z M311.89,236.60 V247.36 H322.64 V236.60 H311.89 Z M322.64,236.60 V247.36 H333.40 V236.60 H322.64 Z M344.15,236.60 V247.36 H354.91 V236.60 H344.15 Z M376.42,236.60 V247.36 H387.17 V236.60 H376.42 Z M387.17,236.60 V247.36 H397.92 V236.60 H387.17 Z M397.92,236.60 V247.36 H408.68 V236.60 H397.92 Z M430.19,236.60 V247.36 H440.94 V236.60 H430.19 Z M440.94,236.60 V247.36 H451.70 V236.60 H440.94 Z M451.70,236.60 V247.36 H462.45 V236.60 H451.70 Z M473.21,236.60 V247.36 H483.96 V236.60 H473.21 Z M505.47,236.60 V247.36 H516.23 V236.60 H505.47 Z M516.23,236.60 V247.36 H526.98 V236.60 H516.23 Z M548.49,236.60 V247.36 H559.25 V236.60 H548.49 Z M21.51,247.36 V258.11 H32.26 V247.36 H21.51 Z M53.77,247.36 V258.11 H64.53 V247.36 H53.77 Z M86.04,247.36 V258.11 H96.79 V247.36 H86.04 Z M96.79,247.36 V258.11 H107.55 V247.36 H96.79 Z M107.55,247.36 V258.11 H118.30 V247.36 H107.55 Z M139.81,247.36 V258.11 H150.57 V247.36 H139.81 Z M161.32,247.36 V258.11 H172.08 V247.36 H161.32 Z M182.83,247.36 V258.11 H193.58 V247.36 H182.83 Z M193.58,247.36 V258.11 H204.34 V247.36 H193.58 Z M215.09,247.36 V258.11 H225.85 V247.36 H215.09 Z M225.85,247.36 V258.11 H236.60 V247.36 H225.85 Z M247.36,247.36 V258.11 H258.11 V247.36 H247.36 Z M301.13,247.36 V258.11 H311.89 V247.36 H301.13 Z M322.64,247.36 V258.11 H333.40 V247.36 H322.64 Z M354.91,247.36 V258.11 H365.66 V247.36 H354.91 Z M365.66,247.36 V258.11 H376.42 V247.36 H365.66 Z M376.42,247.36 V258.11 H387.17 V247.36 H376.42 Z M419.43,247.36 V258.11 H430.19 V247.36 H419.43 Z M451.70,247.36 V258.11 H462.45 V247.36 H451.70 Z M473.21,247.36 V258.11 H483.96 V247.36 H473.21 Z M494.72,247.36 V258.11 H505.47 V247.36 H494.72 Z M537.74,247.36 V258.11 H548.49 V247.36 H537.74 Z M548.49,247.36 V258.11 H559.25 V247.36 H548.49 Z M43.02,258.11 V268.87 H53.77 V258.11 H43.02 Z M53.77,258.11 V268.87 H64.53 V258.11 H53.77 Z M64.53,258.11 V268.87 H75.28 V258.11 H64.53 Z M75.28,258.11 V268.87 H86.04 V258.11 H75.28 Z M86.04,258.11 V268.87 H96.79 V258.11 H86.04 Z M118.30,258.11 V268.87 H129.06 V258.11 H118.30 Z M129.06,258.11 V268.87 H139.81 V258.11 H129.06 Z M139.81,258.11 V268.87 H150.57 V258.11 H139.81 Z M150.57,258.11 V268.87 H161.32 V258.11 H150.57 Z M161.32,258.11 V268.87 H172.08 V258.11 H161.32 Z M182.83,258.11 V268.87 H193.58 V258.11 H182.83 Z M193.58,258.11 V268.87 H204.34 V258.11 H193.58 Z M204.34,258.11 V268.87 H215.09 V258.11 H204.34 Z M225.85,258.11 V268.87 H236.60 V258.11 H225.85 Z M236.60,258.11 V268.87 H247.36 V258.11 H236.60 Z M247.36,258.11 V268.87 H258.11 V258.11 H247.36 Z M258.11,258.11 V268.87 H268.87 V258.11 H258.11 Z M268.87,258.11 V268.87 H279.62 V258.11 H268.87 Z M279.62,258.11 V268.87 H290.38 V258.11 H279.62 Z M290.38,258.11 V268.87 H301.13 V258.11 H290.38 Z M301.13,258.11 V268.87 H311.89 V258.11 H301.13 Z M344.15,258.11 V268.87 H354.91 V258.11 H344.15 Z M365.66,258.11 V268.87 H376.42 V258.11 H365.66 Z M387.17,258.11 V268.87 H397.92 V258.11 H387.17 Z M408.68,258.11 V268.87 H419.43 V258.11 H408.68 Z M419.43,258.11 V268.87 H430.19 V258.11 H419.43 Z M440.94,258.11 V268.87 H451.70 V258.11 H440.94 Z M451.70,258.11 V268.87 H462.45 V258.11 H451.70 Z M462.45,258.11 V268.87 H473.21 V258.11 H462.45 Z M473.21,258.11 V268.87 H483.96 V258.11 H473.21 Z M483.96,258.11 V268.87 H494.72 V258.11 H483.96 Z M494.72,258.11 V268.87 H505.47 V258.11 H494.72 Z M505.47,258.11 V268.87 H516.23 V258.11 H505.47 Z M516.23,258.11 V268.87 H526.98 V258.11 H516.23 Z M559.25,258.11 V268.87 H570 V258.11 H559.25 Z M10.75,268.87 V279.62 H21.51 V268.87 H10.75 Z M43.02,268.87 V279.62 H53.77 V268.87 H43.02 Z M86.04,268.87 V279.62 H96.79 V268.87 H86.04 Z M96.79,268.87 V279.62 H107.55 V268.87 H96.79 Z M150.57,268.87 V279.62 H161.32 V268.87 H150.57 Z M161.32,268.87 V279.62 H172.08 V268.87 H161.32 Z M182.83,268.87 V279.62 H193.58 V268.87 H182.83 Z M215.09,268.87 V279.62 H225.85 V268.87 H215.09 Z M247.36,268.87 V279.62 H258.11 V268.87 H247.36 Z M258.11,268.87 V279.62 H268.87 V268.87 H258.11 Z M301.13,268.87 V279.62 H311.89 V268.87 H301.13 Z M322.64,268.87 V279.62 H333.40 V268.87 H322.64 Z M344.15,268.87 V279.62 H354.91 V268.87 H344.15 Z M354.91,268.87 V279.62 H365.66 V268.87 H354.91 Z M387.17,268.87 V279.62 H397.92 V268.87 H387.17 Z M408.68,268.87 V279.62 H419.43 V268.87 H408.68 Z M419.43,268.87 V279.62 H430.19 V268.87 H419.43 Z M473.21,268.87 V279.62 H483.96 V268.87 H473.21 Z M516.23,268.87 V279.62 H526.98 V268.87 H516.23 Z M537.74,268.87 V279.62 H548.49 V268.87 H537.74 Z M548.49,268.87 V279.62 H559.25 V268.87 H548.49 Z M21.51,279.62 V290.38 H32.26 V279.62 H21.51 Z M32.26,279.62 V290.38 H43.02 V279.62 H32.26 Z M43.02,279.62 V290.38 H53.77 V279.62 H43.02 Z M64.53,279.62 V290.38 H75.28 V279.62 H64.53 Z M86.04,279.62 V290.38 H96.79 V279.62 H86.04 Z M96.79,279.62 V290.38 H107.55 V279.62 H96.79 Z M107.55,279.62 V290.38 H118.30 V279.62 H107.55 Z M139.81,279.62 V290.38 H150.57 V279.62 H139.81 Z M161.32,279.62 V290.38 H172.08 V279.62 H161.32 Z M204.34,279.62 V290.38 H215.09 V279.62 H204.34 Z M215.09,279.62 V290.38 H225.85 V279.62 H215.09 Z M236.60,279.62 V290.38 H247.36 V279.62 H236.60 Z M258.11,279.62 V290.38 H268.87 V279.62 H258.11 Z M279.62,279.62 V290.38 H290.38 V279.62 H279.62 Z M301.13,279.62 V290.38 H311.89 V279.62 H301.13 Z M311.89,279.62 V290.38 H322.64 V279.62 H311.89 Z M322.64,279.62 V290.38 H333.40 V279.62 H322.64 Z M333.40,279.62 V290.38 H344.15 V279.62 H333.40 Z M354.91,279.62 V290.38 H365.66 V279.62 H354.91 Z M365.66,279.62 V290.38 H376.42 V279.62 H365.66 Z M387.17,279.62 V290.38 H397.92 V279.62 H387.17 Z M419.43,279.62 V290.38 H430.19 V279.62 H419.43 Z M430.19,279.62 V290.38 H440.94 V279.62 H430.19 Z M451.70,279.62 V290.38 H462.45 V279.62 H451.70 Z M462.45,279.62 V290.38 H473.21 V279.62 H462.45 Z M473.21,279.62 V290.38 H483.96 V279.62 H473.21 Z M494.72,279.62 V290.38 H505.47 V279.62 H494.72 Z M516.23,279.62 V290.38 H526.98 V279.62 H516.23 Z M526.98,279.62 V290.38 H537.74 V279.62 H526.98 Z M537.74,279.62 V290.38 H548.49 V279.62 H537.74 Z M0,290.38 V301.13 H10.75 V290.38 H0 Z M10.75,290.38 V301.13 H21.51 V290.38 H10.75 Z M43.02,290.38 V301.13 H53.77 V290.38 H43.02 Z M86.04,290.38 V301.13 H96.79 V290.38 H86.04 Z M129.06,290.38 V301.13 H139.81 V290.38 H129.06 Z M172.08,290.38 V301.13 H182.83 V290.38 H172.08 Z M182.83,290.38 V301.13 H193.58 V290.38 H182.83 Z M193.58,290.38 V301.13 H204.34 V290.38 H193.58 Z M204.34,290.38 V301.13 H215.09 V290.38 H204.34 Z M215.09,290.38 V301.13 H225.85 V290.38 H215.09 Z M225.85,290.38 V301.13 H236.60 V290.38 H225.85 Z M236.60,290.38 V301.13 H247.36 V290.38 H236.60 Z M247.36,290.38 V301.13 H258.11 V290.38 H247.36 Z M258.11,290.38 V301.13 H268.87 V290.38 H258.11 Z M301.13,290.38 V301.13 H311.89 V290.38 H301.13 Z M322.64,290.38 V301.13 H333.40 V290.38 H322.64 Z M333.40,290.38 V301.13 H344.15 V290.38 H333.40 Z M354.91,290.38 V301.13 H365.66 V290.38 H354.91 Z M365.66,290.38 V301.13 H376.42 V290.38 H365.66 Z M397.92,290.38 V301.13 H408.68 V290.38 H397.92 Z M408.68,290.38 V301.13 H419.43 V290.38 H408.68 Z M430.19,290.38 V301.13 H440.94 V290.38 H430.19 Z M473.21,290.38 V301.13 H483.96 V290.38 H473.21 Z M516.23,290.38 V301.13 H526.98 V290.38 H516.23 Z M537.74,290.38 V301.13 H548.49 V290.38 H537.74 Z M32.26,301.13 V311.89 H43.02 V301.13 H32.26 Z M43.02,301.13 V311.89 H53.77 V301.13 H43.02 Z M53.77,301.13 V311.89 H64.53 V301.13 H53.77 Z M64.53,301.13 V311.89 H75.28 V301.13 H64.53 Z M75.28,301.13 V311.89 H86.04 V301.13 H75.28 Z M86.04,301.13 V311.89 H96.79 V301.13 H86.04 Z M96.79,301.13 V311.89 H107.55 V301.13 H96.79 Z M150.57,301.13 V311.89 H161.32 V301.13 H150.57 Z M172.08,301.13 V311.89 H182.83 V301.13 H172.08 Z M193.58,301.13 V311.89 H204.34 V301.13 H193.58 Z M204.34,301.13 V311.89 H215.09 V301.13 H204.34 Z M215.09,301.13 V311.89 H225.85 V301.13 H215.09 Z M225.85,301.13 V311.89 H236.60 V301.13 H225.85 Z M247.36,301.13 V311.89 H258.11 V301.13 H247.36 Z M258.11,301.13 V311.89 H268.87 V301.13 H258.11 Z M268.87,301.13 V311.89 H279.62 V301.13 H268.87 Z M279.62,301.13 V311.89 H290.38 V301.13 H279.62 Z M290.38,301.13 V311.89 H301.13 V301.13 H290.38 Z M301.13,301.13 V311.89 H311.89 V301.13 H301.13 Z M311.89,301.13 V311.89 H322.64 V301.13 H311.89 Z M344.15,301.13 V311.89 H354.91 V301.13 H344.15 Z M354.91,301.13 V311.89 H365.66 V301.13 H354.91 Z M376.42,301.13 V311.89 H387.17 V301.13 H376.42 Z M408.68,301.13 V311.89 H419.43 V301.13 H408.68 Z M419.43,301.13 V311.89 H430.19 V301.13 H419.43 Z M440.94,301.13 V311.89 H451.70 V301.13 H440.94 Z M473.21,301.13 V311.89 H483.96 V301.13 H473.21 Z M483.96,301.13 V311.89 H494.72 V301.13 H483.96 Z M494.72,301.13 V311.89 H505.47 V301.13 H494.72 Z M505.47,301.13 V311.89 H516.23 V301.13 H505.47 Z M516.23,301.13 V311.89 H526.98 V301.13 H516.23 Z M537.74,301.13 V311.89 H548.49 V301.13 H537.74 Z M548.49,301.13 V311.89 H559.25 V301.13 H548.49 Z M559.25,301.13 V311.89 H570 V301.13 H559.25 Z M0,311.89 V322.64 H10.75 V311.89 H0 Z M10.75,311.89 V322.64 H21.51 V311.89 H10.75 Z M53.77,311.89 V322.64 H64.53 V311.89 H53.77 Z M107.55,311.89 V322.64 H118.30 V311.89 H107.55 Z M129.06,311.89 V322.64 H139.81 V311.89 H129.06 Z M139.81,311.89 V322.64 H150.57 V311.89 H139.81 Z M161.32,311.89 V322.64 H172.08 V311.89 H161.32 Z M182.83,311.89 V322.64 H193.58 V311.89 H182.83 Z M268.87,311.89 V322.64 H279.62 V311.89 H268.87 Z M279.62,311.89 V322.64 H290.38 V311.89 H279.62 Z M301.13,311.89 V322.64 H311.89 V311.89 H301.13 Z M344.15,311.89 V322.64 H354.91 V311.89 H344.15 Z M376.42,311.89 V322.64 H387.17 V311.89 H376.42 Z M387.17,311.89 V322.64 H397.92 V311.89 H387.17 Z M408.68,311.89 V322.64 H419.43 V311.89 H408.68 Z M430.19,311.89 V322.64 H440.94 V311.89 H430.19 Z M440.94,311.89 V322.64 H451.70 V311.89 H440.94 Z M483.96,311.89 V322.64 H494.72 V311.89 H483.96 Z M494.72,311.89 V322.64 H505.47 V311.89 H494.72 Z M505.47,311.89 V322.64 H516.23 V311.89 H505.47 Z M516.23,311.89 V322.64 H526.98 V311.89 H516.23 Z M526.98,311.89 V322.64 H537.74 V311.89 H526.98 Z M548.49,311.89 V322.64 H559.25 V311.89 H548.49 Z M559.25,311.89 V322.64 H570 V311.89 H559.25 Z M0,322.64 V333.40 H10.75 V322.64 H0 Z M21.51,322.64 V333.40 H32.26 V322.64 H21.51 Z M32.26,322.64 V333.40 H43.02 V322.64 H32.26 Z M43.02,322.64 V333.40 H53.77 V322.64 H43.02 Z M53.77,322.64 V333.40 H64.53 V322.64 H53.77 Z M64.53,322.64 V333.40 H75.28 V322.64 H64.53 Z M96.79,322.64 V333.40 H107.55 V322.64 H96.79 Z M107.55,322.64 V333.40 H118.30 V322.64 H107.55 Z M150.57,322.64 V333.40 H161.32 V322.64 H150.57 Z M161.32,322.64 V333.40 H172.08 V322.64 H161.32 Z M172.08,322.64 V333.40 H182.83 V322.64 H172.08 Z M182.83,322.64 V333.40 H193.58 V322.64 H182.83 Z M204.34,322.64 V333.40 H215.09 V322.64 H204.34 Z M215.09,322.64 V333.40 H225.85 V322.64 H215.09 Z M225.85,322.64 V333.40 H236.60 V322.64 H225.85 Z M268.87,322.64 V333.40 H279.62 V322.64 H268.87 Z M311.89,322.64 V333.40 H322.64 V322.64 H311.89 Z M322.64,322.64 V333.40 H333.40 V322.64 H322.64 Z M333.40,322.64 V333.40 H344.15 V322.64 H333.40 Z M344.15,322.64 V333.40 H354.91 V322.64 H344.15 Z M354.91,322.64 V333.40 H365.66 V322.64 H354.91 Z M365.66,322.64 V333.40 H376.42 V322.64 H365.66 Z M376.42,322.64 V333.40 H387.17 V322.64 H376.42 Z M397.92,322.64 V333.40 H408.68 V322.64 H397.92 Z M419.43,322.64 V333.40 H430.19 V322.64 H419.43 Z M430.19,322.64 V333.40 H440.94 V322.64 H430.19 Z M440.94,322.64 V333.40 H451.70 V322.64 H440.94 Z M462.45,322.64 V333.40 H473.21 V322.64 H462.45 Z M483.96,322.64 V333.40 H494.72 V322.64 H483.96 Z M505.47,322.64 V333.40 H516.23 V322.64 H505.47 Z M526.98,322.64 V333.40 H537.74 V322.64 H526.98 Z M10.75,333.40 V344.15 H21.51 V333.40 H10.75 Z M43.02,333.40 V344.15 H53.77 V333.40 H43.02 Z M86.04,333.40 V344.15 H96.79 V333.40 H86.04 Z M96.79,333.40 V344.15 H107.55 V333.40 H96.79 Z M129.06,333.40 V344.15 H139.81 V333.40 H129.06 Z M139.81,333.40 V344.15 H150.57 V333.40 H139.81 Z M182.83,333.40 V344.15 H193.58 V333.40 H182.83 Z M215.09,333.40 V344.15 H225.85 V333.40 H215.09 Z M247.36,333.40 V344.15 H258.11 V333.40 H247.36 Z M258.11,333.40 V344.15 H268.87 V333.40 H258.11 Z M268.87,333.40 V344.15 H279.62 V333.40 H268.87 Z M279.62,333.40 V344.15 H290.38 V333.40 H279.62 Z M301.13,333.40 V344.15 H311.89 V333.40 H301.13 Z M333.40,333.40 V344.15 H344.15 V333.40 H333.40 Z M354.91,333.40 V344.15 H365.66 V333.40 H354.91 Z M365.66,333.40 V344.15 H376.42 V333.40 H365.66 Z M397.92,333.40 V344.15 H408.68 V333.40 H397.92 Z M440.94,333.40 V344.15 H451.70 V333.40 H440.94 Z M451.70,333.40 V344.15 H462.45 V333.40 H451.70 Z M473.21,333.40 V344.15 H483.96 V333.40 H473.21 Z M505.47,333.40 V344.15 H516.23 V333.40 H505.47 Z M516.23,333.40 V344.15 H526.98 V333.40 H516.23 Z M537.74,333.40 V344.15 H548.49 V333.40 H537.74 Z M559.25,333.40 V344.15 H570 V333.40 H559.25 Z M0,344.15 V354.91 H10.75 V344.15 H0 Z M21.51,344.15 V354.91 H32.26 V344.15 H21.51 Z M32.26,344.15 V354.91 H43.02 V344.15 H32.26 Z M43.02,344.15 V354.91 H53.77 V344.15 H43.02 Z M64.53,344.15 V354.91 H75.28 V344.15 H64.53 Z M75.28,344.15 V354.91 H86.04 V344.15 H75.28 Z M96.79,344.15 V354.91 H107.55 V344.15 H96.79 Z M107.55,344.15 V354.91 H118.30 V344.15 H107.55 Z M129.06,344.15 V354.91 H139.81 V344.15 H129.06 Z M150.57,344.15 V354.91 H161.32 V344.15 H150.57 Z M172.08,344.15 V354.91 H182.83 V344.15 H172.08 Z M193.58,344.15 V354.91 H204.34 V344.15 H193.58 Z M247.36,344.15 V354.91 H258.11 V344.15 H247.36 Z M258.11,344.15 V354.91 H268.87 V344.15 H258.11 Z M268.87,344.15 V354.91 H279.62 V344.15 H268.87 Z M290.38,344.15 V354.91 H301.13 V344.15 H290.38 Z M311.89,344.15 V354.91 H322.64 V344.15 H311.89 Z M333.40,344.15 V354.91 H344.15 V344.15 H333.40 Z M376.42,344.15 V354.91 H387.17 V344.15 H376.42 Z M387.17,344.15 V354.91 H397.92 V344.15 H387.17 Z M408.68,344.15 V354.91 H419.43 V344.15 H408.68 Z M419.43,344.15 V354.91 H430.19 V344.15 H419.43 Z M430.19,344.15 V354.91 H440.94 V344.15 H430.19 Z M483.96,344.15 V354.91 H494.72 V344.15 H483.96 Z M494.72,344.15 V354.91 H505.47 V344.15 H494.72 Z M516.23,344.15 V354.91 H526.98 V344.15 H516.23 Z M526.98,344.15 V354.91 H537.74 V344.15 H526.98 Z M548.49,344.15 V354.91 H559.25 V344.15 H548.49 Z M559.25,344.15 V354.91 H570 V344.15 H559.25 Z M0,354.91 V365.66 H10.75 V354.91 H0 Z M10.75,354.91 V365.66 H21.51 V354.91 H10.75 Z M53.77,354.91 V365.66 H64.53 V354.91 H53.77 Z M86.04,354.91 V365.66 H96.79 V354.91 H86.04 Z M96.79,354.91 V365.66 H107.55 V354.91 H96.79 Z M107.55,354.91 V365.66 H118.30 V354.91 H107.55 Z M129.06,354.91 V365.66 H139.81 V354.91 H129.06 Z M150.57,354.91 V365.66 H161.32 V354.91 H150.57 Z M215.09,354.91 V365.66 H225.85 V354.91 H215.09 Z M247.36,354.91 V365.66 H258.11 V354.91 H247.36 Z M258.11,354.91 V365.66 H268.87 V354.91 H258.11 Z M279.62,354.91 V365.66 H290.38 V354.91 H279.62 Z M290.38,354.91 V365.66 H301.13 V354.91 H290.38 Z M311.89,354.91 V365.66 H322.64 V354.91 H311.89 Z M322.64,354.91 V365.66 H333.40 V354.91 H322.64 Z M344.15,354.91 V365.66 H354.91 V354.91 H344.15 Z M354.91,354.91 V365.66 H365.66 V354.91 H354.91 Z M365.66,354.91 V365.66 H376.42 V354.91 H365.66 Z M376.42,354.91 V365.66 H387.17 V354.91 H376.42 Z M387.17,354.91 V365.66 H397.92 V354.91 H387.17 Z M397.92,354.91 V365.66 H408.68 V354.91 H397.92 Z M408.68,354.91 V365.66 H419.43 V354.91 H408.68 Z M430.19,354.91 V365.66 H440.94 V354.91 H430.19 Z M473.21,354.91 V365.66 H483.96 V354.91 H473.21 Z M526.98,354.91 V365.66 H537.74 V354.91 H526.98 Z M537.74,354.91 V365.66 H548.49 V354.91 H537.74 Z M548.49,354.91 V365.66 H559.25 V354.91 H548.49 Z M559.25,354.91 V365.66 H570 V354.91 H559.25 Z M0,365.66 V376.42 H10.75 V365.66 H0 Z M10.75,365.66 V376.42 H21.51 V365.66 H10.75 Z M21.51,365.66 V376.42 H32.26 V365.66 H21.51 Z M64.53,365.66 V376.42 H75.28 V365.66 H64.53 Z M75.28,365.66 V376.42 H86.04 V365.66 H75.28 Z M96.79,365.66 V376.42 H107.55 V365.66 H96.79 Z M129.06,365.66 V376.42 H139.81 V365.66 H129.06 Z M150.57,365.66 V376.42 H161.32 V365.66 H150.57 Z M161.32,365.66 V376.42 H172.08 V365.66 H161.32 Z M182.83,365.66 V376.42 H193.58 V365.66 H182.83 Z M193.58,365.66 V376.42 H204.34 V365.66 H193.58 Z M215.09,365.66 V376.42 H225.85 V365.66 H215.09 Z M225.85,365.66 V376.42 H236.60 V365.66 H225.85 Z M236.60,365.66 V376.42 H247.36 V365.66 H236.60 Z M247.36,365.66 V376.42 H258.11 V365.66 H247.36 Z M258.11,365.66 V376.42 H268.87 V365.66 H258.11 Z M279.62,365.66 V376.42 H290.38 V365.66 H279.62 Z M290.38,365.66 V376.42 H301.13 V365.66 H290.38 Z M311.89,365.66 V376.42 H322.64 V365.66 H311.89 Z M333.40,365.66 V376.42 H344.15 V365.66 H333.40 Z M354.91,365.66 V376.42 H365.66 V365.66 H354.91 Z M397.92,365.66 V376.42 H408.68 V365.66 H397.92 Z M408.68,365.66 V376.42 H419.43 V365.66 H408.68 Z M419.43,365.66 V376.42 H430.19 V365.66 H419.43 Z M440.94,365.66 V376.42 H451.70 V365.66 H440.94 Z M462.45,365.66 V376.42 H473.21 V365.66 H462.45 Z M483.96,365.66 V376.42 H494.72 V365.66 H483.96 Z M494.72,365.66 V376.42 H505.47 V365.66 H494.72 Z M516.23,365.66 V376.42 H526.98 V365.66 H516.23 Z M559.25,365.66 V376.42 H570 V365.66 H559.25 Z M0,376.42 V387.17 H10.75 V376.42 H0 Z M32.26,376.42 V387.17 H43.02 V376.42 H32.26 Z M43.02,376.42 V387.17 H53.77 V376.42 H43.02 Z M86.04,376.42 V387.17 H96.79 V376.42 H86.04 Z M96.79,376.42 V387.17 H107.55 V376.42 H96.79 Z M107.55,376.42 V387.17 H118.30 V376.42 H107.55 Z M118.30,376.42 V387.17 H129.06 V376.42 H118.30 Z M129.06,376.42 V387.17 H139.81 V376.42 H129.06 Z M139.81,376.42 V387.17 H150.57 V376.42 H139.81 Z M193.58,376.42 V387.17 H204.34 V376.42 H193.58 Z M204.34,376.42 V387.17 H215.09 V376.42 H204.34 Z M236.60,376.42 V387.17 H247.36 V376.42 H236.60 Z M258.11,376.42 V387.17 H268.87 V376.42 H258.11 Z M268.87,376.42 V387.17 H279.62 V376.42 H268.87 Z M311.89,376.42 V387.17 H322.64 V376.42 H311.89 Z M322.64,376.42 V387.17 H333.40 V376.42 H322.64 Z M333.40,376.42 V387.17 H344.15 V376.42 H333.40 Z M344.15,376.42 V387.17 H354.91 V376.42 H344.15 Z M365.66,376.42 V387.17 H376.42 V376.42 H365.66 Z M376.42,376.42 V387.17 H387.17 V376.42 H376.42 Z M397.92,376.42 V387.17 H408.68 V376.42 H397.92 Z M419.43,376.42 V387.17 H430.19 V376.42 H419.43 Z M430.19,376.42 V387.17 H440.94 V376.42 H430.19 Z M451.70,376.42 V387.17 H462.45 V376.42 H451.70 Z M473.21,376.42 V387.17 H483.96 V376.42 H473.21 Z M505.47,376.42 V387.17 H516.23 V376.42 H505.47 Z M516.23,376.42 V387.17 H526.98 V376.42 H516.23 Z M537.74,376.42 V387.17 H548.49 V376.42 H537.74 Z M559.25,376.42 V387.17 H570 V376.42 H559.25 Z M0,387.17 V397.92 H10.75 V387.17 H0 Z M10.75,387.17 V397.92 H21.51 V387.17 H10.75 Z M21.51,387.17 V397.92 H32.26 V387.17 H21.51 Z M64.53,387.17 V397.92 H75.28 V387.17 H64.53 Z M75.28,387.17 V397.92 H86.04 V387.17 H75.28 Z M86.04,387.17 V397.92 H96.79 V387.17 H86.04 Z M107.55,387.17 V397.92 H118.30 V387.17 H107.55 Z M118.30,387.17 V397.92 H129.06 V387.17 H118.30 Z M129.06,387.17 V397.92 H139.81 V387.17 H129.06 Z M150.57,387.17 V397.92 H161.32 V387.17 H150.57 Z M172.08,387.17 V397.92 H182.83 V387.17 H172.08 Z M182.83,387.17 V397.92 H193.58 V387.17 H182.83 Z M193.58,387.17 V397.92 H204.34 V387.17 H193.58 Z M215.09,387.17 V397.92 H225.85 V387.17 H215.09 Z M225.85,387.17 V397.92 H236.60 V387.17 H225.85 Z M236.60,387.17 V397.92 H247.36 V387.17 H236.60 Z M247.36,387.17 V397.92 H258.11 V387.17 H247.36 Z M258.11,387.17 V397.92 H268.87 V387.17 H258.11 Z M268.87,387.17 V397.92 H279.62 V387.17 H268.87 Z M279.62,387.17 V397.92 H290.38 V387.17 H279.62 Z M290.38,387.17 V397.92 H301.13 V387.17 H290.38 Z M301.13,387.17 V397.92 H311.89 V387.17 H301.13 Z M333.40,387.17 V397.92 H344.15 V387.17 H333.40 Z M344.15,387.17 V397.92 H354.91 V387.17 H344.15 Z M387.17,387.17 V397.92 H397.92 V387.17 H387.17 Z M408.68,387.17 V397.92 H419.43 V387.17 H408.68 Z M430.19,387.17 V397.92 H440.94 V387.17 H430.19 Z M440.94,387.17 V397.92 H451.70 V387.17 H440.94 Z M462.45,387.17 V397.92 H473.21 V387.17 H462.45 Z M505.47,387.17 V397.92 H516.23 V387.17 H505.47 Z M516.23,387.17 V397.92 H526.98 V387.17 H516.23 Z M526.98,387.17 V397.92 H537.74 V387.17 H526.98 Z M537.74,387.17 V397.92 H548.49 V387.17 H537.74 Z M548.49,387.17 V397.92 H559.25 V387.17 H548.49 Z M559.25,387.17 V397.92 H570 V387.17 H559.25 Z M0,397.92 V408.68 H10.75 V397.92 H0 Z M21.51,397.92 V408.68 H32.26 V397.92 H21.51 Z M32.26,397.92 V408.68 H43.02 V397.92 H32.26 Z M53.77,397.92 V408.68 H64.53 V397.92 H53.77 Z M86.04,397.92 V408.68 H96.79 V397.92 H86.04 Z M96.79,397.92 V408.68 H107.55 V397.92 H96.79 Z M150.57,397.92 V408.68 H161.32 V397.92 H150.57 Z M161.32,397.92 V408.68 H172.08 V397.92 H161.32 Z M172.08,397.92 V408.68 H182.83 V397.92 H172.08 Z M182.83,397.92 V408.68 H193.58 V397.92 H182.83 Z M215.09,397.92 V408.68 H225.85 V397.92 H215.09 Z M225.85,397.92 V408.68 H236.60 V397.92 H225.85 Z M247.36,397.92 V408.68 H258.11 V397.92 H247.36 Z M268.87,397.92 V408.68 H279.62 V397.92 H268.87 Z M290.38,397.92 V408.68 H301.13 V397.92 H290.38 Z M301.13,397.92 V408.68 H311.89 V397.92 H301.13 Z M311.89,397.92 V408.68 H322.64 V397.92 H311.89 Z M322.64,397.92 V408.68 H333.40 V397.92 H322.64 Z M333.40,397.92 V408.68 H344.15 V397.92 H333.40 Z M344.15,397.92 V408.68 H354.91 V397.92 H344.15 Z M354.91,397.92 V408.68 H365.66 V397.92 H354.91 Z M387.17,397.92 V408.68 H397.92 V397.92 H387.17 Z M430.19,397.92 V408.68 H440.94 V397.92 H430.19 Z M462.45,397.92 V408.68 H473.21 V397.92 H462.45 Z M473.21,397.92 V408.68 H483.96 V397.92 H473.21 Z M494.72,397.92 V408.68 H505.47 V397.92 H494.72 Z M505.47,397.92 V408.68 H516.23 V397.92 H505.47 Z M516.23,397.92 V408.68 H526.98 V397.92 H516.23 Z M548.49,397.92 V408.68 H559.25 V397.92 H548.49 Z M0,408.68 V419.43 H10.75 V408.68 H0 Z M10.75,408.68 V419.43 H21.51 V408.68 H10.75 Z M32.26,408.68 V419.43 H43.02 V408.68 H32.26 Z M43.02,408.68 V419.43 H53.77 V408.68 H43.02 Z M53.77,408.68 V419.43 H64.53 V408.68 H53.77 Z M64.53,408.68 V419.43 H75.28 V408.68 H64.53 Z M75.28,408.68 V419.43 H86.04 V408.68 H75.28 Z M96.79,408.68 V419.43 H107.55 V408.68 H96.79 Z M139.81,408.68 V419.43 H150.57 V408.68 H139.81 Z M215.09,408.68 V419.43 H225.85 V408.68 H215.09 Z M236.60,408.68 V419.43 H247.36 V408.68 H236.60 Z M258.11,408.68 V419.43 H268.87 V408.68 H258.11 Z M268.87,408.68 V419.43 H279.62 V408.68 H268.87 Z M279.62,408.68 V419.43 H290.38 V408.68 H279.62 Z M290.38,408.68 V419.43 H301.13 V408.68 H290.38 Z M301.13,408.68 V419.43 H311.89 V408.68 H301.13 Z M354.91,408.68 V419.43 H365.66 V408.68 H354.91 Z M365.66,408.68 V419.43 H376.42 V408.68 H365.66 Z M397.92,408.68 V419.43 H408.68 V408.68 H397.92 Z M408.68,408.68 V419.43 H419.43 V408.68 H408.68 Z M419.43,408.68 V419.43 H430.19 V408.68 H419.43 Z M430.19,408.68 V419.43 H440.94 V408.68 H430.19 Z M451.70,408.68 V419.43 H462.45 V408.68 H451.70 Z M462.45,408.68 V419.43 H473.21 V408.68 H462.45 Z M483.96,408.68 V419.43 H494.72 V408.68 H483.96 Z M505.47,408.68 V419.43 H516.23 V408.68 H505.47 Z M526.98,408.68 V419.43 H537.74 V408.68 H526.98 Z M537.74,408.68 V419.43 H548.49 V408.68 H537.74 Z M548.49,408.68 V419.43 H559.25 V408.68 H548.49 Z M21.51,419.43 V430.19 H32.26 V419.43 H21.51 Z M32.26,419.43 V430.19 H43.02 V419.43 H32.26 Z M43.02,419.43 V430.19 H53.77 V419.43 H43.02 Z M53.77,419.43 V430.19 H64.53 V419.43 H53.77 Z M107.55,419.43 V430.19 H118.30 V419.43 H107.55 Z M118.30,419.43 V430.19 H129.06 V419.43 H118.30 Z M139.81,419.43 V430.19 H150.57 V419.43 H139.81 Z M150.57,419.43 V430.19 H161.32 V419.43 H150.57 Z M161.32,419.43 V430.19 H172.08 V419.43 H161.32 Z M172.08,419.43 V430.19 H182.83 V419.43 H172.08 Z M193.58,419.43 V430.19 H204.34 V419.43 H193.58 Z M279.62,419.43 V430.19 H290.38 V419.43 H279.62 Z M301.13,419.43 V430.19 H311.89 V419.43 H301.13 Z M322.64,419.43 V430.19 H333.40 V419.43 H322.64 Z M333.40,419.43 V430.19 H344.15 V419.43 H333.40 Z M354.91,419.43 V430.19 H365.66 V419.43 H354.91 Z M397.92,419.43 V430.19 H408.68 V419.43 H397.92 Z M408.68,419.43 V430.19 H419.43 V419.43 H408.68 Z M419.43,419.43 V430.19 H430.19 V419.43 H419.43 Z M430.19,419.43 V430.19 H440.94 V419.43 H430.19 Z M440.94,419.43 V430.19 H451.70 V419.43 H440.94 Z M451.70,419.43 V430.19 H462.45 V419.43 H451.70 Z M473.21,419.43 V430.19 H483.96 V419.43 H473.21 Z M494.72,419.43 V430.19 H505.47 V419.43 H494.72 Z M505.47,419.43 V430.19 H516.23 V419.43 H505.47 Z M516.23,419.43 V430.19 H526.98 V419.43 H516.23 Z M537.74,419.43 V430.19 H548.49 V419.43 H537.74 Z M548.49,419.43 V430.19 H559.25 V419.43 H548.49 Z M0,430.19 V440.94 H10.75 V430.19 H0 Z M32.26,430.19 V440.94 H43.02 V430.19 H32.26 Z M53.77,430.19 V440.94 H64.53 V430.19 H53.77 Z M64.53,430.19 V440.94 H75.28 V430.19 H64.53 Z M86.04,430.19 V440.94 H96.79 V430.19 H86.04 Z M107.55,430.19 V440.94 H118.30 V430.19 H107.55 Z M129.06,430.19 V440.94 H139.81 V430.19 H129.06 Z M139.81,430.19 V440.94 H150.57 V430.19 H139.81 Z M150.57,430.19 V440.94 H161.32 V430.19 H150.57 Z M182.83,430.19 V440.94 H193.58 V430.19 H182.83 Z M236.60,430.19 V440.94 H247.36 V430.19 H236.60 Z M247.36,430.19 V440.94 H258.11 V430.19 H247.36 Z M258.11,430.19 V440.94 H268.87 V430.19 H258.11 Z M268.87,430.19 V440.94 H279.62 V430.19 H268.87 Z M290.38,430.19 V440.94 H301.13 V430.19 H290.38 Z M311.89,430.19 V440.94 H322.64 V430.19 H311.89 Z M322.64,430.19 V440.94 H333.40 V430.19 H322.64 Z M333.40,430.19 V440.94 H344.15 V430.19 H333.40 Z M344.15,430.19 V440.94 H354.91 V430.19 H344.15 Z M354.91,430.19 V440.94 H365.66 V430.19 H354.91 Z M376.42,430.19 V440.94 H387.17 V430.19 H376.42 Z M387.17,430.19 V440.94 H397.92 V430.19 H387.17 Z M397.92,430.19 V440.94 H408.68 V430.19 H397.92 Z M408.68,430.19 V440.94 H419.43 V430.19 H408.68 Z M419.43,430.19 V440.94 H430.19 V430.19 H419.43 Z M440.94,430.19 V440.94 H451.70 V430.19 H440.94 Z M451.70,430.19 V440.94 H462.45 V430.19 H451.70 Z M473.21,430.19 V440.94 H483.96 V430.19 H473.21 Z M483.96,430.19 V440.94 H494.72 V430.19 H483.96 Z M516.23,430.19 V440.94 H526.98 V430.19 H516.23 Z M537.74,430.19 V440.94 H548.49 V430.19 H537.74 Z M43.02,440.94 V451.70 H53.77 V440.94 H43.02 Z M53.77,440.94 V451.70 H64.53 V440.94 H53.77 Z M172.08,440.94 V451.70 H182.83 V440.94 H172.08 Z M182.83,440.94 V451.70 H193.58 V440.94 H182.83 Z M193.58,440.94 V451.70 H204.34 V440.94 H193.58 Z M247.36,440.94 V451.70 H258.11 V440.94 H247.36 Z M258.11,440.94 V451.70 H268.87 V440.94 H258.11 Z M311.89,440.94 V451.70 H322.64 V440.94 H311.89 Z M322.64,440.94 V451.70 H333.40 V440.94 H322.64 Z M354.91,440.94 V451.70 H365.66 V440.94 H354.91 Z M365.66,440.94 V451.70 H376.42 V440.94 H365.66 Z M387.17,440.94 V451.70 H397.92 V440.94 H387.17 Z M408.68,440.94 V451.70 H419.43 V440.94 H408.68 Z M430.19,440.94 V451.70 H440.94 V440.94 H430.19 Z M440.94,440.94 V451.70 H451.70 V440.94 H440.94 Z M462.45,440.94 V451.70 H473.21 V440.94 H462.45 Z M483.96,440.94 V451.70 H494.72 V440.94 H483.96 Z M494.72,440.94 V451.70 H505.47 V440.94 H494.72 Z M505.47,440.94 V451.70 H516.23 V440.94 H505.47 Z M516.23,440.94 V451.70 H526.98 V440.94 H516.23 Z M526.98,440.94 V451.70 H537.74 V440.94 H526.98 Z M559.25,440.94 V451.70 H570 V440.94 H559.25 Z M0,451.70 V462.45 H10.75 V451.70 H0 Z M10.75,451.70 V462.45 H21.51 V451.70 H10.75 Z M32.26,451.70 V462.45 H43.02 V451.70 H32.26 Z M43.02,451.70 V462.45 H53.77 V451.70 H43.02 Z M53.77,451.70 V462.45 H64.53 V451.70 H53.77 Z M64.53,451.70 V462.45 H75.28 V451.70 H64.53 Z M96.79,451.70 V462.45 H107.55 V451.70 H96.79 Z M118.30,451.70 V462.45 H129.06 V451.70 H118.30 Z M139.81,451.70 V462.45 H150.57 V451.70 H139.81 Z M150.57,451.70 V462.45 H161.32 V451.70 H150.57 Z M161.32,451.70 V462.45 H172.08 V451.70 H161.32 Z M172.08,451.70 V462.45 H182.83 V451.70 H172.08 Z M182.83,451.70 V462.45 H193.58 V451.70 H182.83 Z M204.34,451.70 V462.45 H215.09 V451.70 H204.34 Z M215.09,451.70 V462.45 H225.85 V451.70 H215.09 Z M225.85,451.70 V462.45 H236.60 V451.70 H225.85 Z M268.87,451.70 V462.45 H279.62 V451.70 H268.87 Z M279.62,451.70 V462.45 H290.38 V451.70 H279.62 Z M290.38,451.70 V462.45 H301.13 V451.70 H290.38 Z M301.13,451.70 V462.45 H311.89 V451.70 H301.13 Z M311.89,451.70 V462.45 H322.64 V451.70 H311.89 Z M322.64,451.70 V462.45 H333.40 V451.70 H322.64 Z M354.91,451.70 V462.45 H365.66 V451.70 H354.91 Z M365.66,451.70 V462.45 H376.42 V451.70 H365.66 Z M397.92,451.70 V462.45 H408.68 V451.70 H397.92 Z M419.43,451.70 V462.45 H430.19 V451.70 H419.43 Z M430.19,451.70 V462.45 H440.94 V451.70 H430.19 Z M440.94,451.70 V462.45 H451.70 V451.70 H440.94 Z M494.72,451.70 V462.45 H505.47 V451.70 H494.72 Z M526.98,451.70 V462.45 H537.74 V451.70 H526.98 Z M537.74,451.70 V462.45 H548.49 V451.70 H537.74 Z M559.25,451.70 V462.45 H570 V451.70 H559.25 Z M10.75,462.45 V473.21 H21.51 V462.45 H10.75 Z M21.51,462.45 V473.21 H32.26 V462.45 H21.51 Z M75.28,462.45 V473.21 H86.04 V462.45 H75.28 Z M107.55,462.45 V473.21 H118.30 V462.45 H107.55 Z M139.81,462.45 V473.21 H150.57 V462.45 H139.81 Z M150.57,462.45 V473.21 H161.32 V462.45 H150.57 Z M182.83,462.45 V473.21 H193.58 V462.45 H182.83 Z M193.58,462.45 V473.21 H204.34 V462.45 H193.58 Z M204.34,462.45 V473.21 H215.09 V462.45 H204.34 Z M215.09,462.45 V473.21 H225.85 V462.45 H215.09 Z M258.11,462.45 V473.21 H268.87 V462.45 H258.11 Z M268.87,462.45 V473.21 H279.62 V462.45 H268.87 Z M279.62,462.45 V473.21 H290.38 V462.45 H279.62 Z M311.89,462.45 V473.21 H322.64 V462.45 H311.89 Z M344.15,462.45 V473.21 H354.91 V462.45 H344.15 Z M354.91,462.45 V473.21 H365.66 V462.45 H354.91 Z M365.66,462.45 V473.21 H376.42 V462.45 H365.66 Z M376.42,462.45 V473.21 H387.17 V462.45 H376.42 Z M387.17,462.45 V473.21 H397.92 V462.45 H387.17 Z M397.92,462.45 V473.21 H408.68 V462.45 H397.92 Z M419.43,462.45 V473.21 H430.19 V462.45 H419.43 Z M440.94,462.45 V473.21 H451.70 V462.45 H440.94 Z M473.21,462.45 V473.21 H483.96 V462.45 H473.21 Z M516.23,462.45 V473.21 H526.98 V462.45 H516.23 Z M526.98,462.45 V473.21 H537.74 V462.45 H526.98 Z M537.74,462.45 V473.21 H548.49 V462.45 H537.74 Z M559.25,462.45 V473.21 H570 V462.45 H559.25 Z M32.26,473.21 V483.96 H43.02 V473.21 H32.26 Z M64.53,473.21 V483.96 H75.28 V473.21 H64.53 Z M86.04,473.21 V483.96 H96.79 V473.21 H86.04 Z M96.79,473.21 V483.96 H107.55 V473.21 H96.79 Z M107.55,473.21 V483.96 H118.30 V473.21 H107.55 Z M139.81,473.21 V483.96 H150.57 V473.21 H139.81 Z M204.34,473.21 V483.96 H215.09 V473.21 H204.34 Z M225.85,473.21 V483.96 H236.60 V473.21 H225.85 Z M236.60,473.21 V483.96 H247.36 V473.21 H236.60 Z M258.11,473.21 V483.96 H268.87 V473.21 H258.11 Z M268.87,473.21 V483.96 H279.62 V473.21 H268.87 Z M279.62,473.21 V483.96 H290.38 V473.21 H279.62 Z M290.38,473.21 V483.96 H301.13 V473.21 H290.38 Z M301.13,473.21 V483.96 H311.89 V473.21 H301.13 Z M333.40,473.21 V483.96 H344.15 V473.21 H333.40 Z M354.91,473.21 V483.96 H365.66 V473.21 H354.91 Z M387.17,473.21 V483.96 H397.92 V473.21 H387.17 Z M397.92,473.21 V483.96 H408.68 V473.21 H397.92 Z M408.68,473.21 V483.96 H419.43 V473.21 H408.68 Z M440.94,473.21 V483.96 H451.70 V473.21 H440.94 Z M462.45,473.21 V483.96 H473.21 V473.21 H462.45 Z M473.21,473.21 V483.96 H483.96 V473.21 H473.21 Z M483.96,473.21 V483.96 H494.72 V473.21 H483.96 Z M494.72,473.21 V483.96 H505.47 V473.21 H494.72 Z M505.47,473.21 V483.96 H516.23 V473.21 H505.47 Z M516.23,473.21 V483.96 H526.98 V473.21 H516.23 Z M526.98,473.21 V483.96 H537.74 V473.21 H526.98 Z M548.49,473.21 V483.96 H559.25 V473.21 H548.49 Z M559.25,473.21 V483.96 H570 V473.21 H559.25 Z M86.04,483.96 V494.72 H96.79 V483.96 H86.04 Z M118.30,483.96 V494.72 H129.06 V483.96 H118.30 Z M150.57,483.96 V494.72 H161.32 V483.96 H150.57 Z M172.08,483.96 V494.72 H182.83 V483.96 H172.08 Z M215.09,483.96 V494.72 H225.85 V483.96 H215.09 Z M258.11,483.96 V494.72 H268.87 V483.96 H258.11 Z M301.13,483.96 V494.72 H311.89 V483.96 H301.13 Z M344.15,483.96 V494.72 H354.91 V483.96 H344.15 Z M365.66,483.96 V494.72 H376.42 V483.96 H365.66 Z M376.42,483.96 V494.72 H387.17 V483.96 H376.42 Z M387.17,483.96 V494.72 H397.92 V483.96 H387.17 Z M430.19,483.96 V494.72 H440.94 V483.96 H430.19 Z M451.70,483.96 V494.72 H462.45 V483.96 H451.70 Z M462.45,483.96 V494.72 H473.21 V483.96 H462.45 Z M473.21,483.96 V494.72 H483.96 V483.96 H473.21 Z M516.23,483.96 V494.72 H526.98 V483.96 H516.23 Z M559.25,483.96 V494.72 H570 V483.96 H559.25 Z M0,494.72 V505.47 H10.75 V494.72 H0 Z M10.75,494.72 V505.47 H21.51 V494.72 H10.75 Z M21.51,494.72 V505.47 H32.26 V494.72 H21.51 Z M32.26,494.72 V505.47 H43.02 V494.72 H32.26 Z M43.02,494.72 V505.47 H53.77 V494.72 H43.02 Z M53.77,494.72 V505.47 H64.53 V494.72 H53.77 Z M64.53,494.72 V505.47 H75.28 V494.72 H64.53 Z M96.79,494.72 V505.47 H107.55 V494.72 H96.79 Z M107.55,494.72 V505.47 H118.30 V494.72 H107.55 Z M118.30,494.72 V505.47 H129.06 V494.72 H118.30 Z M129.06,494.72 V505.47 H139.81 V494.72 H129.06 Z M172.08,494.72 V505.47 H182.83 V494.72 H172.08 Z M182.83,494.72 V505.47 H193.58 V494.72 H182.83 Z M204.34,494.72 V505.47 H215.09 V494.72 H204.34 Z M225.85,494.72 V505.47 H236.60 V494.72 H225.85 Z M236.60,494.72 V505.47 H247.36 V494.72 H236.60 Z M247.36,494.72 V505.47 H258.11 V494.72 H247.36 Z M258.11,494.72 V505.47 H268.87 V494.72 H258.11 Z M279.62,494.72 V505.47 H290.38 V494.72 H279.62 Z M301.13,494.72 V505.47 H311.89 V494.72 H301.13 Z M311.89,494.72 V505.47 H322.64 V494.72 H311.89 Z M322.64,494.72 V505.47 H333.40 V494.72 H322.64 Z M344.15,494.72 V505.47 H354.91 V494.72 H344.15 Z M387.17,494.72 V505.47 H397.92 V494.72 H387.17 Z M408.68,494.72 V505.47 H419.43 V494.72 H408.68 Z M419.43,494.72 V505.47 H430.19 V494.72 H419.43 Z M451.70,494.72 V505.47 H462.45 V494.72 H451.70 Z M462.45,494.72 V505.47 H473.21 V494.72 H462.45 Z M473.21,494.72 V505.47 H483.96 V494.72 H473.21 Z M494.72,494.72 V505.47 H505.47 V494.72 H494.72 Z M516.23,494.72 V505.47 H526.98 V494.72 H516.23 Z M537.74,494.72 V505.47 H548.49 V494.72 H537.74 Z M548.49,494.72 V505.47 H559.25 V494.72 H548.49 Z M0,505.47 V516.23 H10.75 V505.47 H0 Z M64.53,505.47 V516.23 H75.28 V505.47 H64.53 Z M107.55,505.47 V516.23 H118.30 V505.47 H107.55 Z M139.81,505.47 V516.23 H150.57 V505.47 H139.81 Z M150.57,505.47 V516.23 H161.32 V505.47 H150.57 Z M172.08,505.47 V516.23 H182.83 V505.47 H172.08 Z M236.60,505.47 V516.23 H247.36 V505.47 H236.60 Z M247.36,505.47 V516.23 H258.11 V505.47 H247.36 Z M258.11,505.47 V516.23 H268.87 V505.47 H258.11 Z M301.13,505.47 V516.23 H311.89 V505.47 H301.13 Z M322.64,505.47 V516.23 H333.40 V505.47 H322.64 Z M344.15,505.47 V516.23 H354.91 V505.47 H344.15 Z M365.66,505.47 V516.23 H376.42 V505.47 H365.66 Z M376.42,505.47 V516.23 H387.17 V505.47 H376.42 Z M387.17,505.47 V516.23 H397.92 V505.47 H387.17 Z M397.92,505.47 V516.23 H408.68 V505.47 H397.92 Z M430.19,505.47 V516.23 H440.94 V505.47 H430.19 Z M451.70,505.47 V516.23 H462.45 V505.47 H451.70 Z M462.45,505.47 V516.23 H473.21 V505.47 H462.45 Z M473.21,505.47 V516.23 H483.96 V505.47 H473.21 Z M516.23,505.47 V516.23 H526.98 V505.47 H516.23 Z M559.25,505.47 V516.23 H570 V505.47 H559.25 Z M0,516.23 V526.98 H10.75 V516.23 H0 Z M21.51,516.23 V526.98 H32.26 V516.23 H21.51 Z M32.26,516.23 V526.98 H43.02 V516.23 H32.26 Z M43.02,516.23 V526.98 H53.77 V516.23 H43.02 Z M64.53,516.23 V526.98 H75.28 V516.23 H64.53 Z M86.04,516.23 V526.98 H96.79 V516.23 H86.04 Z M96.79,516.23 V526.98 H107.55 V516.23 H96.79 Z M107.55,516.23 V526.98 H118.30 V516.23 H107.55 Z M118.30,516.23 V526.98 H129.06 V516.23 H118.30 Z M129.06,516.23 V526.98 H139.81 V516.23 H129.06 Z M139.81,516.23 V526.98 H150.57 V516.23 H139.81 Z M150.57,516.23 V526.98 H161.32 V516.23 H150.57 Z M161.32,516.23 V526.98 H172.08 V516.23 H161.32 Z M172.08,516.23 V526.98 H182.83 V516.23 H172.08 Z M182.83,516.23 V526.98 H193.58 V516.23 H182.83 Z M193.58,516.23 V526.98 H204.34 V516.23 H193.58 Z M204.34,516.23 V526.98 H215.09 V516.23 H204.34 Z M215.09,516.23 V526.98 H225.85 V516.23 H215.09 Z M258.11,516.23 V526.98 H268.87 V516.23 H258.11 Z M268.87,516.23 V526.98 H279.62 V516.23 H268.87 Z M279.62,516.23 V526.98 H290.38 V516.23 H279.62 Z M290.38,516.23 V526.98 H301.13 V516.23 H290.38 Z M301.13,516.23 V526.98 H311.89 V516.23 H301.13 Z M311.89,516.23 V526.98 H322.64 V516.23 H311.89 Z M333.40,516.23 V526.98 H344.15 V516.23 H333.40 Z M354.91,516.23 V526.98 H365.66 V516.23 H354.91 Z M387.17,516.23 V526.98 H397.92 V516.23 H387.17 Z M397.92,516.23 V526.98 H408.68 V516.23 H397.92 Z M440.94,516.23 V526.98 H451.70 V516.23 H440.94 Z M451.70,516.23 V526.98 H462.45 V516.23 H451.70 Z M473.21,516.23 V526.98 H483.96 V516.23 H473.21 Z M483.96,516.23 V526.98 H494.72 V516.23 H483.96 Z M494.72,516.23 V526.98 H505.47 V516.23 H494.72 Z M505.47,516.23 V526.98 H516.23 V516.23 H505.47 Z M516.23,516.23 V526.98 H526.98 V516.23 H516.23 Z M526.98,516.23 V526.98 H537.74 V516.23 H526.98 Z M537.74,516.23 V526.98 H548.49 V516.23 H537.74 Z M0,526.98 V537.74 H10.75 V526.98 H0 Z M21.51,526.98 V537.74 H32.26 V526.98 H21.51 Z M32.26,526.98 V537.74 H43.02 V526.98 H32.26 Z M43.02,526.98 V537.74 H53.77 V526.98 H43.02 Z M64.53,526.98 V537.74 H75.28 V526.98 H64.53 Z M96.79,526.98 V537.74 H107.55 V526.98 H96.79 Z M118.30,526.98 V537.74 H129.06 V526.98 H118.30 Z M129.06,526.98 V537.74 H139.81 V526.98 H129.06 Z M139.81,526.98 V537.74 H150.57 V526.98 H139.81 Z M150.57,526.98 V537.74 H161.32 V526.98 H150.57 Z M182.83,526.98 V537.74 H193.58 V526.98 H182.83 Z M193.58,526.98 V537.74 H204.34 V526.98 H193.58 Z M215.09,526.98 V537.74 H225.85 V526.98 H215.09 Z M268.87,526.98 V537.74 H279.62 V526.98 H268.87 Z M279.62,526.98 V537.74 H290.38 V526.98 H279.62 Z M290.38,526.98 V537.74 H301.13 V526.98 H290.38 Z M311.89,526.98 V537.74 H322.64 V526.98 H311.89 Z M322.64,526.98 V537.74 H333.40 V526.98 H322.64 Z M344.15,526.98 V537.74 H354.91 V526.98 H344.15 Z M387.17,526.98 V537.74 H397.92 V526.98 H387.17 Z M419.43,526.98 V537.74 H430.19 V526.98 H419.43 Z M462.45,526.98 V537.74 H473.21 V526.98 H462.45 Z M473.21,526.98 V537.74 H483.96 V526.98 H473.21 Z M494.72,526.98 V537.74 H505.47 V526.98 H494.72 Z M516.23,526.98 V537.74 H526.98 V526.98 H516.23 Z M548.49,526.98 V537.74 H559.25 V526.98 H548.49 Z M559.25,526.98 V537.74 H570 V526.98 H559.25 Z M0,537.74 V548.49 H10.75 V537.74 H0 Z M21.51,537.74 V548.49 H32.26 V537.74 H21.51 Z M32.26,537.74 V548.49 H43.02 V537.74 H32.26 Z M43.02,537.74 V548.49 H53.77 V537.74 H43.02 Z M64.53,537.74 V548.49 H75.28 V537.74 H64.53 Z M86.04,537.74 V548.49 H96.79 V537.74 H86.04 Z M150.57,537.74 V548.49 H161.32 V537.74 H150.57 Z M161.32,537.74 V548.49 H172.08 V537.74 H161.32 Z M172.08,537.74 V548.49 H182.83 V537.74 H172.08 Z M193.58,537.74 V548.49 H204.34 V537.74 H193.58 Z M204.34,537.74 V548.49 H215.09 V537.74 H204.34 Z M215.09,537.74 V548.49 H225.85 V537.74 H215.09 Z M225.85,537.74 V548.49 H236.60 V537.74 H225.85 Z M268.87,537.74 V548.49 H279.62 V537.74 H268.87 Z M290.38,537.74 V548.49 H301.13 V537.74 H290.38 Z M301.13,537.74 V548.49 H311.89 V537.74 H301.13 Z M322.64,537.74 V548.49 H333.40 V537.74 H322.64 Z M333.40,537.74 V548.49 H344.15 V537.74 H333.40 Z M344.15,537.74 V548.49 H354.91 V537.74 H344.15 Z M387.17,537.74 V548.49 H397.92 V537.74 H387.17 Z M408.68,537.74 V548.49 H419.43 V537.74 H408.68 Z M419.43,537.74 V548.49 H430.19 V537.74 H419.43 Z M462.45,537.74 V548.49 H473.21 V537.74 H462.45 Z M483.96,537.74 V548.49 H494.72 V537.74 H483.96 Z M516.23,537.74 V548.49 H526.98 V537.74 H516.23 Z M526.98,537.74 V548.49 H537.74 V537.74 H526.98 Z M548.49,537.74 V548.49 H559.25 V537.74 H548.49 Z M0,548.49 V559.25 H10.75 V548.49 H0 Z M64.53,548.49 V559.25 H75.28 V548.49 H64.53 Z M86.04,548.49 V559.25 H96.79 V548.49 H86.04 Z M96.79,548.49 V559.25 H107.55 V548.49 H96.79 Z M118.30,548.49 V559.25 H129.06 V548.49 H118.30 Z M129.06,548.49 V559.25 H139.81 V548.49 H129.06 Z M139.81,548.49 V559.25 H150.57 V548.49 H139.81 Z M150.57,548.49 V559.25 H161.32 V548.49 H150.57 Z M161.32,548.49 V559.25 H172.08 V548.49 H161.32 Z M172.08,548.49 V559.25 H182.83 V548.49 H172.08 Z M182.83,548.49 V559.25 H193.58 V548.49 H182.83 Z M204.34,548.49 V559.25 H215.09 V548.49 H204.34 Z M215.09,548.49 V559.25 H225.85 V548.49 H215.09 Z M236.60,548.49 V559.25 H247.36 V548.49 H236.60 Z M258.11,548.49 V559.25 H268.87 V548.49 H258.11 Z M290.38,548.49 V559.25 H301.13 V548.49 H290.38 Z M301.13,548.49 V559.25 H311.89 V548.49 H301.13 Z M311.89,548.49 V559.25 H322.64 V548.49 H311.89 Z M344.15,548.49 V559.25 H354.91 V548.49 H344.15 Z M354.91,548.49 V559.25 H365.66 V548.49 H354.91 Z M365.66,548.49 V559.25 H376.42 V548.49 H365.66 Z M387.17,548.49 V559.25 H397.92 V548.49 H387.17 Z M397.92,548.49 V559.25 H408.68 V548.49 H397.92 Z M419.43,548.49 V559.25 H430.19 V548.49 H419.43 Z M430.19,548.49 V559.25 H440.94 V548.49 H430.19 Z M451.70,548.49 V559.25 H462.45 V548.49 H451.70 Z M473.21,548.49 V559.25 H483.96 V548.49 H473.21 Z M516.23,548.49 V559.25 H526.98 V548.49 H516.23 Z M526.98,548.49 V559.25 H537.74 V548.49 H526.98 Z M537.74,548.49 V559.25 H548.49 V548.49 H537.74 Z M0,559.25 V570 H10.75 V559.25 H0 Z M10.75,559.25 V570 H21.51 V559.25 H10.75 Z M21.51,559.25 V570 H32.26 V559.25 H21.51 Z M32.26,559.25 V570 H43.02 V559.25 H32.26 Z M43.02,559.25 V570 H53.77 V559.25 H43.02 Z M53.77,559.25 V570 H64.53 V559.25 H53.77 Z M64.53,559.25 V570 H75.28 V559.25 H64.53 Z M86.04,559.25 V570 H96.79 V559.25 H86.04 Z M96.79,559.25 V570 H107.55 V559.25 H96.79 Z M129.06,559.25 V570 H139.81 V559.25 H129.06 Z M139.81,559.25 V570 H150.57 V559.25 H139.81 Z M150.57,559.25 V570 H161.32 V559.25 H150.57 Z M161.32,559.25 V570 H172.08 V559.25 H161.32 Z M193.58,559.25 V570 H204.34 V559.25 H193.58 Z M204.34,559.25 V570 H215.09 V559.25 H204.34 Z M215.09,559.25 V570 H225.85 V559.25 H215.09 Z M225.85,559.25 V570 H236.60 V559.25 H225.85 Z M268.87,559.25 V570 H279.62 V559.25 H268.87 Z M279.62,559.25 V570 H290.38 V559.25 H279.62 Z M290.38,559.25 V570 H301.13 V559.25 H290.38 Z M311.89,559.25 V570 H322.64 V559.25 H311.89 Z M322.64,559.25 V570 H333.40 V559.25 H322.64 Z M333.40,559.25 V570 H344.15 V559.25 H333.40 Z M376.42,559.25 V570 H387.17 V559.25 H376.42 Z M387.17,559.25 V570 H397.92 V559.25 H387.17 Z M397.92,559.25 V570 H408.68 V559.25 H397.92 Z M408.68,559.25 V570 H419.43 V559.25 H408.68 Z M419.43,559.25 V570 H430.19 V559.25 H419.43 Z M430.19,559.25 V570 H440.94 V559.25 H430.19 Z M440.94,559.25 V570 H451.70 V559.25 H440.94 Z M451.70,559.25 V570 H462.45 V559.25 H451.70 Z M462.45,559.25 V570 H473.21 V559.25 H462.45 Z M483.96,559.25 V570 H494.72 V559.25 H483.96 Z M548.49,559.25 V570 H559.25 V559.25 H548.49 Z "/><rect x="245" y="245" width="80" height="80"/><path fill="#fff" fill-rule="evenodd" shape-rendering="crispEdges" d="M328.37,241.63L241.63,241.63L241.63,328.37L328.37,328.37L328.37,241.63ZM325.069,244.931L244.931,244.931L244.931,325.069L325.069,325.069L325.069,244.931ZM293.014,275.572L293.014,257.187L277.458,257.187L277.458,275.572L259.073,275.572L259.073,291.128L277.458,291.128L277.458,309.041L293.014,309.041L293.014,291.128L310.927,291.128L310.927,275.572L293.014,275.572Z"/></svg>